<svg width="293" height="256" viewBox="0 0 293 256" fill="none" xmlns="http://www.w3.org/2000/svg">
<g clip-path="url(#clip0)">
<path opacity="0.42" d="M292.825 140.724C290.919 165.702 273.13 188.527 274.835 213.153C274.907 214.188 275.005 215.222 275.144 216.221C275.465 218.663 275.992 221.074 276.508 223.464C277.205 226.718 277.877 229.972 277.985 233.293C278.109 237.241 277.21 241.473 275.046 244.675C274.044 246.168 272.709 247.408 271.147 248.297C270.784 248.496 270.412 248.678 270.031 248.84C267.901 249.659 265.664 250.164 263.389 250.34C230.435 253.817 197.663 242 164.513 242.394C136.622 242.725 109.247 251.706 81.6499 254.872C77.5178 255.358 73.3858 255.71 69.2537 255.865C65.4315 256.045 61.6042 256.045 57.7717 255.865C56.3255 255.788 54.9051 255.69 53.4847 255.576C51.5684 255.415 49.6625 255.183 47.7463 254.888C37.0236 253.336 26.5178 249.812 18.0987 243.077C1.33796 229.646 -3.95625 204.762 2.9443 184.373C7.4276 171.113 16.4407 159.08 17.138 145.122C17.9179 129.518 8.17137 115.478 4.95869 100.185C3.56928 93.7023 3.40916 87.0181 3.58994 80.4064C3.91534 69.9352 5.65598 58.5329 13.2796 51.3831C15.351 49.5162 17.6506 47.9203 20.1234 46.6338C21.487 45.894 22.8506 45.2111 24.2555 44.5282C29.6736 41.8483 35.1538 39.215 40.634 36.6748C60.2613 27.435 80.1624 18.8418 100.337 10.8953C112.387 6.15122 124.706 1.56233 137.608 0.336215C161.259 -1.89356 184.425 7.28422 205.875 17.5743C217.321 23.0841 228.628 28.956 240.383 33.8656C243.405 35.1124 246.447 36.3075 249.531 37.3784C252.201 38.3407 254.913 39.2357 257.64 40.0117C261.126 41.0464 265.832 41.3465 269.52 42.6916L270.279 42.9813C271.281 43.3835 272.208 43.9519 273.022 44.6627L273.177 44.8024C280.444 51.6728 283.212 70.4578 285.325 79.9356C288.016 91.9588 289.669 104.204 291.291 116.414C292.355 124.479 293.434 132.617 292.825 140.724Z" fill="#3703A5"/>
<path d="M211.448 174.481L215.25 157.166L214.428 153.317L192.864 155.572C192.864 155.572 190.281 170.953 182.952 165.816C175.623 160.679 182.074 154.822 182.074 154.822L181.253 150.973L159.906 152.763L156.151 173.638C156.151 173.638 147.008 167.663 142.67 172.49C139.602 175.904 141.983 183.944 147.468 184.989C149.692 185.452 151.981 185.508 154.224 185.154L148.945 205.672L149.767 209.522L203.292 216.532L211.448 174.481Z" fill="#3703A5"/>
<path d="M211.448 174.481L215.25 157.166L214.428 153.317L192.864 155.572C192.864 155.572 190.281 170.953 182.952 165.816C175.623 160.679 182.074 154.822 182.074 154.822L181.253 150.973L159.906 152.763L156.151 173.638C156.151 173.638 147.008 167.663 142.67 172.49C139.602 175.904 141.983 183.944 147.468 184.989C149.692 185.452 151.981 185.508 154.224 185.154L148.945 205.672L149.767 209.522L203.292 216.532L211.448 174.481Z" fill="url(#paint0_linear)"/>
<path d="M86.283 206.484L103.224 211.606L108.529 208.673L106.52 189.365C106.52 189.365 91.4119 185.604 97.0832 178.687C102.754 171.77 108.095 178.651 108.095 178.651L113.42 175.718L111.871 156.669L91.3448 151.32C91.3448 151.32 99.0924 140.078 94.6401 135.375C91.4739 132.048 82.1716 136.41 80.6944 141.785C80.0701 143.968 79.8427 146.246 80.0229 148.51L61.4286 139.26L56.124 142.214L45.0449 195.123L86.283 206.484Z" fill="#3703A5"/>
<path d="M86.283 206.484L103.224 211.606L108.529 208.673L106.52 189.365C106.52 189.365 91.4119 185.604 97.0832 178.687C102.754 171.77 108.095 178.651 108.095 178.651L113.42 175.718L111.871 156.669L91.3448 151.32C91.3448 151.32 99.0924 140.078 94.6401 135.375C91.4739 132.048 82.1716 136.41 80.6944 141.785C80.0701 143.968 79.8427 146.246 80.0229 148.51L61.4286 139.26L56.124 142.214L45.0449 195.123L86.283 206.484Z" fill="url(#paint1_linear)"/>
<path d="M67.8898 97.3136L59.5069 106.517L58.4067 112.291L78.9018 121.458C78.9018 121.458 86.5875 107.893 91.7112 115.224C94.2938 118.892 91.768 121.246 89.8828 120.082L88.7826 125.856L108.926 135.385L118.807 118.158C118.807 118.158 127.226 122.188 131.25 119.989C133.368 118.83 134.592 116.554 135.072 114.764C135.072 114.764 136.069 109.658 135.826 108.99C135.382 107.785 133.068 110.258 131.617 109.357C126.86 106.424 125.031 107.893 125.031 107.893L137.835 85.5336L138.936 79.7599L92.0935 66.4692L67.8898 97.3136Z" fill="url(#paint2_linear)"/>
<path d="M69.0003 91.5398L59.5068 106.517L79.9967 115.684C79.9967 115.684 85.854 104.867 92.8062 109.476C99.1489 113.656 89.8827 120.108 89.8827 120.108L110.027 129.637L119.907 112.41C119.907 112.41 128.321 116.44 132.35 114.241C136.379 112.042 137.474 106.543 132.712 103.61C127.949 100.676 126.126 102.145 126.126 102.145L138.936 79.7856L93.1729 60.6851L69.0003 91.5398Z" fill="#3703A5"/>
<path d="M69.0003 91.5398L59.5068 106.517L79.9967 115.684C79.9967 115.684 85.854 104.867 92.8062 109.476C99.1489 113.656 89.8827 120.108 89.8827 120.108L110.027 129.637L119.907 112.41C119.907 112.41 128.321 116.44 132.35 114.241C136.379 112.042 137.474 106.543 132.712 103.61C127.949 100.676 126.126 102.145 126.126 102.145L138.936 79.7856L93.1729 60.6851L69.0003 91.5398Z" fill="url(#paint3_linear)"/>
<path d="M172.623 132.814L191.966 128.411C191.966 128.411 194.714 137.346 199.057 138.82C201.34 139.591 203.84 138.95 205.478 138.091C205.478 138.091 209.904 135.359 210.23 134.733C210.813 133.585 207.435 133.559 207.105 131.883C206.03 126.389 203.716 126.037 203.716 126.037L228.808 120.31L233.793 117.206L211.789 73.7017L172.746 76.8058L160.314 76.8627L155.335 79.9668L162.489 101.276C162.489 101.276 177.653 97.7429 175.742 106.481C174.792 110.853 171.362 110.62 170.939 108.426L165.954 111.53" fill="url(#paint4_linear)"/>
<path d="M177.731 73.7018L160.314 76.8679L167.483 98.1724C167.483 98.1724 179.389 95.1511 180.742 103.377C181.971 110.884 170.954 108.426 170.954 108.426L177.602 129.71L196.945 125.307C196.945 125.307 199.693 134.237 204.036 135.711C208.38 137.186 213.158 134.268 212.073 128.763C210.989 123.259 208.68 122.922 208.68 122.922L233.777 117.195L216.774 70.5977L177.731 73.7018Z" fill="#3703A5"/>
<path d="M212.073 128.763C213.147 134.252 208.37 137.181 204.021 135.696C199.672 134.211 196.924 125.307 196.924 125.307L177.581 129.7L170.933 108.416C170.933 108.416 181.95 110.873 180.721 103.377C179.378 95.1355 167.462 98.162 167.462 98.162L160.309 76.8576L177.72 73.6914L198.127 72.0824L216.768 70.5977L225.327 94.0336L226.086 96.103L229.185 104.598L233.766 117.211L208.674 122.933C208.674 122.933 211.04 123.285 212.073 128.763Z" fill="url(#paint5_linear)"/>
<path d="M201.139 99.9932L198.308 104.132C200.157 103.806 202.105 104.334 203.923 103.868C204.799 103.592 205.645 103.228 206.449 102.782C208.489 101.858 210.595 101.089 212.75 100.48L221.696 97.722C223.189 97.2616 225.11 96.9202 226.066 98.1566L223.772 88.2028C223.713 87.7537 223.534 87.3286 223.256 86.9715C222.857 86.6486 222.363 86.4667 221.851 86.4542C217.941 85.9679 213.401 86.8629 210.488 84.1934C209.062 82.8793 208.22 80.8203 206.397 80.1632C204.847 79.6097 203.117 80.3029 201.862 81.3531C200.607 82.4033 199.672 83.7898 198.52 84.9487C194.249 89.2323 187.198 90.2515 183.758 95.2336C189.667 96.5839 195.023 90.8051 201.082 90.6964C199.341 90.7275 196.015 93.9868 194.667 95.0422C193.195 96.2062 190.535 97.7272 190.426 99.8121C190.127 105.348 198.944 101.002 201.139 99.9932Z" fill="url(#paint6_linear)"/>
<path d="M91.5872 203.551L108.529 208.673L111.829 186.427C111.829 186.427 96.7213 182.66 102.387 175.744C108.053 168.827 113.399 175.707 113.399 175.707L117.149 153.725L96.649 148.376C96.649 148.376 100.807 141.035 96.3339 136.332C93.1729 133.005 87.4758 133.44 86.0037 138.841C85.3793 141.024 85.1536 143.303 85.3374 145.567L61.4231 139.25L50.3491 192.19L91.5872 203.551Z" fill="#3703A5"/>
<path d="M91.5872 203.551L108.529 208.673L111.829 186.427C111.829 186.427 96.7213 182.66 102.387 175.744C108.053 168.827 113.399 175.707 113.399 175.707L117.149 153.725L96.649 148.376C96.649 148.376 100.807 141.035 96.3339 136.332C93.1729 133.005 87.4758 133.44 86.0037 138.841C85.3793 141.024 85.1536 143.303 85.3374 145.567L61.4231 139.25L50.3491 192.19L91.5872 203.551Z" fill="url(#paint7_linear)"/>
<path d="M58.0195 192.987C62.2135 185.335 65.5915 177.016 71.7018 170.787C72.5747 169.898 73.9951 169.023 74.9506 169.83C75.7461 170.503 75.4671 171.77 75.1469 172.753L72.0995 181.724L78.2976 171.548C79.3306 169.887 80.4618 168.113 82.2902 167.451C82.562 167.334 82.8546 167.274 83.1502 167.274C83.4459 167.274 83.7384 167.334 84.0102 167.451C84.9193 167.916 85.0432 169.132 85.0432 170.151C85.028 172.918 84.6917 175.673 84.0412 178.361C85.7396 175.5 87.8765 172.923 90.3736 170.725C91.293 171.403 91.4376 172.707 91.4066 173.829C91.2878 177.844 89.9397 181.709 88.602 185.496C87.8789 187.565 87.1351 189.635 85.7973 191.362C83.3852 194.467 79.4288 195.863 75.5963 196.67C71.7638 197.478 67.7867 197.85 64.2331 199.506C62.823 200.168 61.4749 201.032 59.9409 201.301C58.2674 201.59 54.4711 200.695 54.0372 198.616C53.8461 197.498 57.1827 194.508 58.0195 192.987Z" fill="url(#paint8_linear)"/>
<path d="M210.627 170.632L214.429 153.317L192.038 151.723C192.038 151.723 189.455 167.104 182.131 161.967C174.807 156.83 181.253 150.973 181.253 150.973L159.085 148.904L155.324 169.779C155.324 169.779 147.701 166.188 143.362 171.015C140.294 174.43 141.157 180.084 146.647 181.13C148.868 181.588 151.153 181.641 153.393 181.285L148.935 205.652L202.471 212.672L210.627 170.632Z" fill="#3703A5"/>
<path d="M192.653 163.648C191.418 163.105 189.554 162.567 189.037 163.814C188.774 164.434 189.078 165.133 189.373 165.733L192.679 172.386L184.699 169.391C184.186 169.126 183.596 169.055 183.035 169.189C181.754 169.67 182.178 171.574 182.829 172.774L187.699 181.76C185.54 182.076 183.474 179.339 181.501 180.322C179.952 181.098 180.21 183.369 180.861 184.978C183.727 191.88 189.6 197.053 193.779 203.261C195.225 205.403 196.506 208.083 195.54 210.473C195.116 211.508 194.316 212.806 195.085 213.639C195.451 213.947 195.905 214.129 196.382 214.157C200.477 214.857 204.649 214.984 208.778 214.534C209.229 200.425 209.918 186.329 210.844 172.246C210.927 170.994 210.994 169.66 210.369 168.578C209.784 167.725 209 167.028 208.086 166.545C206.108 165.293 204.161 163.958 202.131 162.779C199.91 161.491 199.342 162.08 199.445 164.564C197.275 165.097 194.657 164.533 192.653 163.648Z" fill="url(#paint9_linear)"/>
<path d="M112.831 97.722C112.868 98.7153 111.798 99.4396 110.822 99.4034C109.846 99.2743 108.923 98.8828 108.152 98.2704C105.264 96.3769 102.377 94.4782 99.5158 92.5796C97.2534 91.0948 94.8672 89.5738 92.2226 89.2013C97.5634 93.5988 102.79 98.1876 107.837 102.911C108.462 103.48 109.128 104.318 108.715 105.058C108.492 105.396 108.151 105.64 107.759 105.741C105.306 106.507 102.79 104.924 100.626 103.573C96.2993 100.862 91.6643 98.6791 86.82 97.0702C91.2225 99.9041 95.378 103.106 99.242 106.641C99.7585 107.127 100.373 107.852 100.079 108.514C99.9441 108.796 99.7184 109.023 99.4383 109.161C97.6202 110.118 95.4767 108.907 93.7567 107.816C86.6385 103.222 78.9422 99.5962 70.8702 97.034C70.4208 96.8943 69.739 96.5839 69.114 96.3873C68.7229 96.2314 68.2924 96.2042 67.8847 96.3097L62.074 103.206L59.9718 98.3791C56.1703 88.7719 54.0217 78.2024 47.7461 70.2611C47.1775 69.5407 46.5724 68.85 45.9331 68.1917C44.0776 66.3329 42.0964 64.6043 40.0036 63.0182C34.1154 58.3104 26.4143 51.7659 20.1387 46.6493C21.5023 45.9095 22.8658 45.2266 24.2707 44.5437C29.6734 41.8483 35.1536 39.215 40.6337 36.6748C45.897 42.4536 53.5206 50.5553 58.7116 55.1442C61.5575 57.6481 64.5998 60.0486 68.1482 61.3938C69.3155 61.8439 70.5241 62.175 71.7172 62.5268C78.7725 64.6827 85.4386 67.9539 91.4634 72.2167C97.9404 76.8056 104.702 80.8461 110.28 86.5111C110.995 87.1008 111.531 87.8783 111.829 88.7564C112.067 89.6514 111.638 90.7844 110.719 90.981C110.058 91.1207 109.391 90.7068 108.828 90.3395L97.1501 82.5792C101.339 88.0683 108.513 90.7844 112.32 96.5476C112.591 96.8869 112.768 97.2922 112.831 97.722V97.722Z" fill="#775339"/>
<path d="M273.502 44.254C273.331 44.3885 273.171 44.5282 272.985 44.6627C266.553 49.8017 260.114 54.9373 253.668 60.0694C251.576 61.6653 249.595 63.4025 247.738 65.2687C237.697 75.8537 237.016 92.4089 229.175 104.618L226.076 96.1234C226.161 95.826 226.178 95.5129 226.124 95.208C226.071 94.9032 225.948 94.6147 225.766 94.3645C225.639 94.2262 225.486 94.1138 225.317 94.0334C224.614 93.6609 223.623 93.8575 222.801 94.1316C214.733 96.6952 207.038 100.313 199.915 104.893C198.195 106.005 196.031 107.215 194.233 106.238C193.943 106.119 193.707 105.895 193.572 105.612C193.278 104.949 193.861 104.225 194.409 103.739C198.273 100.204 202.428 97.0018 206.831 94.1679C201.99 95.7774 197.356 97.9532 193.025 100.65C190.86 102.021 188.345 103.584 185.907 102.818C185.709 102.778 185.522 102.699 185.355 102.585C185.188 102.471 185.046 102.325 184.936 102.156C184.544 101.416 185.189 100.573 185.809 100.009C190.86 95.2664 196.074 90.6964 201.449 86.299C198.758 86.6715 196.397 88.1925 194.135 89.6773L185.52 95.3681C184.683 95.9165 183.82 96.4649 182.829 96.5011C181.837 96.5373 180.763 95.8027 180.82 94.8249C180.875 94.3746 181.054 93.9484 181.336 93.5936C185.138 87.8303 192.312 85.0987 196.506 79.6252L184.828 87.3854C184.259 87.7579 183.598 88.1666 182.937 88.0114C182.039 87.8148 181.61 86.7025 181.827 85.8075C182.044 84.9125 182.72 84.2037 183.376 83.5415C187.798 79.0975 192.963 75.6157 198.128 72.0822C199.497 71.1665 200.839 70.2249 202.182 69.2678C208.21 65.0076 214.877 61.7382 221.934 59.5831C223.127 59.2313 224.335 58.9002 225.503 58.4501C229.051 57.1049 232.093 54.6993 234.939 52.2005C240.146 47.6116 244.861 42.5157 249.505 37.3784C252.175 38.3355 254.887 39.2357 257.614 40.0169C261.106 41.0516 265.801 41.3465 269.494 42.6916L270.253 42.9865L273.502 44.254Z" fill="#D9A677"/>
<path d="M99.3403 181.284C97.7908 189.081 94.3302 196.189 91.4429 203.587C88.7481 210.462 84.9691 216.858 80.2502 222.533C79.4496 223.49 78.6129 224.426 77.8897 225.44C75.6688 228.544 74.424 232.197 73.4271 235.849C72.1978 240.381 70.6018 248.483 69.295 255.866C65.4729 256.041 61.6455 256.041 57.813 255.866C56.3668 255.788 54.9464 255.69 53.5208 255.576C51.6098 255.414 49.6987 255.184 47.7876 254.888C49.9363 249.342 52.1159 243.76 53.4692 239.579C54.3448 237.1 55.0472 234.562 55.5714 231.985C57.7201 220.086 52.2606 208.326 50.241 196.396C50.241 196.396 54.5694 198.124 57.3843 197.431C58.4174 197.177 59.9204 194.948 60.5815 194.125C65.9315 187.552 70.3849 180.296 73.8248 172.546C74.6409 170.674 75.7927 168.485 77.8174 168.289C78.1282 168.245 78.4446 168.307 78.7161 168.465C79.3411 168.858 79.2327 169.773 79.0467 170.498C77.7607 175.575 76.0449 180.534 73.9178 185.32C77.0883 181.321 79.7724 176.958 81.9133 172.324C82.9877 169.98 84.217 167.285 86.6704 166.581C86.8621 166.509 87.0663 166.475 87.2711 166.482C87.4759 166.489 87.6773 166.537 87.8635 166.623C88.6021 167.011 88.504 168.087 88.3077 168.884C86.6687 175.623 84.8178 182.309 82.7553 188.941C84.8213 187.167 85.9318 184.585 87.001 182.107C88.3783 178.941 89.7436 175.776 91.0969 172.614C91.4894 171.698 91.9181 170.762 92.7135 170.192C93.509 169.623 94.8209 169.649 95.2961 170.487C95.5016 170.892 95.5944 171.344 95.5647 171.796C95.5285 178.708 91.0452 184.916 90.5339 191.813C92.3675 187.498 94.2011 183.199 96.0347 178.879C96.2878 178.253 96.6183 177.549 97.264 177.327C98.1214 176.996 99.0976 177.699 99.4075 178.558C99.6349 179.456 99.6117 180.399 99.3403 181.284Z" fill="#F1B475"/>
<path d="M277.985 233.33C278.109 237.277 277.211 241.509 275.046 244.711C274.044 246.204 272.709 247.444 271.147 248.333C270.784 248.533 270.412 248.714 270.031 248.876C262.908 243.185 255.342 237.148 250.801 233.692C248.379 231.761 245.827 229.999 243.162 228.42C227.151 219.439 206.49 224.705 189.637 217.421C188.939 217.131 188.154 216.681 188.04 215.936C187.927 215.191 188.428 214.591 188.996 214.141C192.095 211.606 196.62 212.346 200.633 212.589C201.666 212.667 202.937 212.589 203.541 211.73C204.264 210.696 203.618 209.33 202.957 208.274C197.69 199.762 191.317 191.987 184.007 185.154C182.23 183.493 180.246 181.388 180.809 179.018C180.865 178.655 181.048 178.323 181.326 178.082C182.013 177.565 182.984 178.025 183.707 178.496C188.869 181.893 193.736 185.719 198.257 189.934C195.011 184.856 191.174 180.183 186.827 176.013C184.626 173.907 182.111 171.501 182.261 168.454C182.256 168.213 182.3 167.973 182.388 167.748C182.477 167.523 182.609 167.318 182.777 167.145C183.495 166.462 184.647 166.995 185.484 167.518C192.343 171.929 199.075 176.564 205.679 181.424C204.471 178.47 202.064 176.204 199.677 174.041C196.677 171.31 193.696 168.552 190.685 165.8C189.828 165.014 188.934 164.176 188.619 163.068C188.304 161.961 188.795 160.508 189.926 160.249C190.454 160.194 190.988 160.276 191.475 160.487C199.151 163.167 204.362 170.586 211.826 173.803C207.732 170.092 203.644 166.381 199.564 162.67C198.959 162.153 198.314 161.501 198.278 160.683C198.236 159.587 199.388 158.769 200.478 158.749C201.568 158.728 202.57 159.312 203.505 159.861C211.573 164.589 218.163 171.191 225.281 177.259C231.904 182.933 237.577 189.633 242.083 197.105C242.842 198.352 243.565 199.645 244.407 200.856C246.99 204.524 250.605 207.317 254.293 209.852C259.789 213.613 268.879 219.139 276.503 223.495C277.205 226.754 277.877 230.008 277.985 233.33Z" fill="url(#paint10_linear)"/>
<path d="M69.4703 96.0615L69.0984 96.4133L62.0584 103.232L59.9562 98.4051C56.1547 88.7979 54.0061 78.2284 47.7305 70.2871C47.9836 70.4216 48.7635 70.8717 51.346 72.3151C55.1114 74.4259 61.7743 89.1911 63.7836 92.4918C64.4094 93.4705 65.244 94.2982 66.2272 94.9155C67.2105 95.5327 68.3181 95.924 69.4703 96.0615V96.0615Z" fill="url(#paint11_linear)"/>
</g>
<defs>
<linearGradient id="paint0_linear" x1="171.222" y1="137.698" x2="199.858" y2="256.812" gradientUnits="userSpaceOnUse">
<stop stop-color="#010101" stop-opacity="0"/>
<stop offset="0.95" stop-color="#010101"/>
</linearGradient>
<linearGradient id="paint1_linear" x1="17424" y1="18690.1" x2="10310.7" y2="37782.4" gradientUnits="userSpaceOnUse">
<stop stop-color="#010101" stop-opacity="0"/>
<stop offset="0.95" stop-color="#010101"/>
</linearGradient>
<linearGradient id="paint2_linear" x1="21387.3" y1="9881.5" x2="19838.5" y2="18293.1" gradientUnits="userSpaceOnUse">
<stop stop-color="#010101" stop-opacity="0"/>
<stop offset="0.95" stop-color="#010101"/>
</linearGradient>
<linearGradient id="paint3_linear" x1="85.043" y1="70.6182" x2="136.395" y2="151.922" gradientUnits="userSpaceOnUse">
<stop stop-color="white" stop-opacity="0"/>
<stop offset="0.95" stop-color="white"/>
</linearGradient>
<linearGradient id="paint4_linear" x1="34369.9" y1="1687.08" x2="27517.5" y2="6047.93" gradientUnits="userSpaceOnUse">
<stop stop-color="#010101" stop-opacity="0"/>
<stop offset="0.95" stop-color="#010101"/>
</linearGradient>
<linearGradient id="paint5_linear" x1="26919.5" y1="19311.2" x2="52349.1" y2="-17215.4" gradientUnits="userSpaceOnUse">
<stop stop-color="#010101" stop-opacity="0"/>
<stop offset="0.95" stop-color="#010101"/>
</linearGradient>
<linearGradient id="paint6_linear" x1="19519.4" y1="5581.68" x2="19424" y2="-533.735" gradientUnits="userSpaceOnUse">
<stop stop-color="#010101" stop-opacity="0"/>
<stop offset="0.95" stop-color="#010101"/>
</linearGradient>
<linearGradient id="paint7_linear" x1="15282.1" y1="22817.1" x2="6750.99" y2="69789.3" gradientUnits="userSpaceOnUse">
<stop stop-color="#010101" stop-opacity="0"/>
<stop offset="0.95" stop-color="#010101"/>
</linearGradient>
<linearGradient id="paint8_linear" x1="7517.91" y1="11138.6" x2="7605.84" y2="18371" gradientUnits="userSpaceOnUse">
<stop stop-color="#010101" stop-opacity="0"/>
<stop offset="0.95" stop-color="#010101"/>
</linearGradient>
<linearGradient id="paint9_linear" x1="12198.8" y1="18055.2" x2="20277.1" y2="21045.9" gradientUnits="userSpaceOnUse">
<stop stop-color="#010101" stop-opacity="0"/>
<stop offset="0.95" stop-color="#010101"/>
</linearGradient>
<linearGradient id="paint10_linear" x1="237.651" y1="167.352" x2="212.232" y2="285.286" gradientUnits="userSpaceOnUse">
<stop stop-color="#E5C6D6"/>
<stop offset="0.42" stop-color="#EAD4D0"/>
<stop offset="1" stop-color="#F0E9CB"/>
</linearGradient>
<linearGradient id="paint11_linear" x1="4052.43" y1="5679.14" x2="2277.06" y2="6030.98" gradientUnits="userSpaceOnUse">
<stop stop-color="#010101" stop-opacity="0"/>
<stop offset="0.95" stop-color="#010101"/>
</linearGradient>
<clipPath id="clip0">
<rect width="293" height="256" fill="white"/>
</clipPath>
</defs>
</svg>
