<svg width="164" height="20" viewBox="0 0 164 20" fill="none" xmlns="http://www.w3.org/2000/svg">
<path d="M86.9996 0.00416133L84.406 0C81.4923 0 79.6093 1.9319 79.6093 4.92203V7.19141H77.0016C76.7762 7.19141 76.5938 7.37409 76.5938 7.59943V10.8875C76.5938 11.1128 76.7764 11.2953 77.0016 11.2953H79.6093V19.5922C79.6093 19.8175 79.7917 20 80.0171 20H83.4194C83.6447 20 83.8272 19.8173 83.8272 19.5922V11.2953H86.8762C87.1015 11.2953 87.284 11.1128 87.284 10.8875L87.2853 7.59943C87.2853 7.49123 87.2422 7.38762 87.1658 7.31105C87.0895 7.23448 86.9854 7.19141 86.8772 7.19141H83.8272V5.26763C83.8272 4.34298 84.0475 3.87358 85.252 3.87358L86.9992 3.87295C87.2243 3.87295 87.4068 3.69027 87.4068 3.46514V0.411972C87.4068 0.187052 87.2245 0.00457747 86.9996 0.00416133Z" fill="white"/>
<path d="M14.4805 0H5.51913C2.47588 0 0 2.476 0 5.51924V14.4806C0 17.524 2.47588 19.9999 5.51913 19.9999H14.4805C17.524 19.9999 19.9999 17.5239 19.9999 14.4806V5.51924C20 2.476 17.524 0 14.4805 0ZM18.2255 14.4806C18.2255 16.5455 16.5455 18.2254 14.4806 18.2254H5.51913C3.45433 18.2255 1.77449 16.5455 1.77449 14.4806V5.51924C1.77449 3.45445 3.45433 1.77449 5.51913 1.77449H14.4805C16.5454 1.77449 18.2254 3.45445 18.2254 5.51924V14.4806H18.2255Z" fill="white"/>
<path d="M10.0001 4.84668C7.15848 4.84668 4.84668 7.15848 4.84668 10.0001C4.84668 12.8417 7.15848 15.1534 10.0001 15.1534C12.8418 15.1534 15.1536 12.8417 15.1536 10.0001C15.1536 7.15848 12.8418 4.84668 10.0001 4.84668ZM10.0001 13.3788C8.13705 13.3788 6.62117 11.8631 6.62117 10C6.62117 8.13681 8.13693 6.62105 10.0001 6.62105C11.8634 6.62105 13.3791 8.13681 13.3791 10C13.3791 11.8631 11.8632 13.3788 10.0001 13.3788Z" fill="white"/>
<path d="M15.3696 3.34204C15.0278 3.34204 14.6919 3.48045 14.4505 3.72296C14.2078 3.96429 14.0684 4.30026 14.0684 4.64333C14.0684 4.98533 14.208 5.32118 14.4505 5.5637C14.6918 5.80503 15.0278 5.94462 15.3696 5.94462C15.7127 5.94462 16.0475 5.80503 16.29 5.5637C16.5325 5.32118 16.6709 4.98522 16.6709 4.64333C16.6709 4.30026 16.5325 3.96429 16.29 3.72296C16.0487 3.48045 15.7127 3.34204 15.3696 3.34204Z" fill="white"/>
<path d="M51.8213 2.04948C50.4446 0.727882 48.5394 0 46.4567 0C43.2753 0 41.3186 1.30411 40.2373 2.39806C38.9048 3.74623 38.1406 5.53633 38.1406 7.30947C38.1406 9.53575 39.0718 11.2445 40.6313 11.8802C40.7359 11.9231 40.8413 11.9447 40.9446 11.9447C41.2735 11.9447 41.5342 11.7295 41.6245 11.3842C41.6772 11.1861 41.7991 10.6974 41.8522 10.4852C41.9657 10.0662 41.874 9.86473 41.6264 9.57297C41.1754 9.03932 40.9653 8.40826 40.9653 7.58697C40.9653 5.14749 42.7818 2.55481 46.1485 2.55481C48.8198 2.55481 50.4792 4.07308 50.4792 6.51708C50.4792 8.05934 50.147 9.48763 49.5436 10.539C49.1243 11.2695 48.387 12.1404 47.2552 12.1404C46.7657 12.1404 46.326 11.9393 46.0486 11.5888C45.7865 11.2574 45.7001 10.8293 45.8055 10.3832C45.9246 9.87918 46.087 9.35339 46.2441 8.84509C46.5307 7.91672 46.8016 7.0399 46.8016 6.34033C46.8016 5.14375 46.066 4.33975 44.9713 4.33975C43.58 4.33975 42.4901 5.75281 42.4901 7.55672C42.4901 8.44141 42.7252 9.10311 42.8316 9.3572C42.6563 10.0998 41.6147 14.5146 41.4171 15.3471C41.3029 15.8331 40.6147 19.6715 41.7538 19.9776C43.0336 20.3215 44.1777 16.5831 44.2941 16.1607C44.3885 15.8171 44.7187 14.518 44.921 13.7195C45.5389 14.3146 46.5337 14.7169 47.5016 14.7169C49.3264 14.7169 50.9675 13.8958 52.1226 12.4048C53.2429 10.9587 53.8599 8.9432 53.8599 6.72975C53.8599 4.99932 53.1168 3.2934 51.8213 2.04948Z" fill="white"/>
<g clip-path="url(#clip0)">
<path d="M128 3.79875C127.256 4.125 126.464 4.34125 125.637 4.44625C126.487 3.93875 127.136 3.14125 127.441 2.18C126.649 2.6525 125.774 2.98625 124.841 3.1725C124.089 2.37125 123.016 1.875 121.846 1.875C119.576 1.875 117.749 3.7175 117.749 5.97625C117.749 6.30125 117.776 6.61375 117.844 6.91125C114.435 6.745 111.419 5.11125 109.392 2.6225C109.039 3.23625 108.831 3.93875 108.831 4.695C108.831 6.115 109.562 7.37375 110.652 8.1025C109.994 8.09 109.347 7.89875 108.8 7.5975C108.8 7.61 108.8 7.62625 108.8 7.6425C108.8 9.635 110.221 11.29 112.085 11.6712C111.751 11.7625 111.387 11.8062 111.01 11.8062C110.747 11.8062 110.482 11.7912 110.234 11.7362C110.765 13.36 112.273 14.5537 114.065 14.5925C112.67 15.6837 110.899 16.3412 108.981 16.3412C108.645 16.3412 108.322 16.3262 108 16.285C109.816 17.4562 111.969 18.125 114.29 18.125C121.835 18.125 125.96 11.875 125.96 6.4575C125.96 6.27625 125.954 6.10125 125.945 5.9275C126.759 5.35 127.442 4.62875 128 3.79875Z" fill="white"/>
</g>
<path d="M163.15 4.45C162.607 3.485 162.019 3.3075 160.82 3.24C159.623 3.15875 156.611 3.125 154.002 3.125C151.389 3.125 148.376 3.15875 147.18 3.23875C145.984 3.3075 145.394 3.48375 144.846 4.45C144.287 5.41375 144 7.07375 144 9.99625C144 9.99875 144 10 144 10C144 10.0025 144 10.0038 144 10.0038V10.0063C144 12.9163 144.287 14.5888 144.846 15.5425C145.394 16.5075 145.982 16.6825 147.179 16.7638C148.376 16.8338 151.389 16.875 154.002 16.875C156.611 16.875 159.622 16.8337 160.821 16.765C162.02 16.6837 162.609 16.5088 163.151 15.5438C163.715 14.59 164 12.9175 164 10.0075C164 10.0075 164 10.0038 164 10.0013C164 10.0013 164 9.99875 164 9.9975C164 7.07375 163.715 5.41375 163.15 4.45ZM151.5 13.75V6.25L157.75 10L151.5 13.75Z" fill="white"/>
<defs>
<clipPath id="clip0">
<rect x="108" width="20" height="20" fill="white"/>
</clipPath>
</defs>
</svg>
