<svg width="284" height="267" viewBox="0 0 284 267" fill="none" xmlns="http://www.w3.org/2000/svg">
<g clip-path="url(#clip0)">
<path opacity="0.42" d="M77.5036 28.5778C66.5434 39.6933 58.2733 53.4376 46.1206 63.2193C37.1739 70.4443 26.3301 75.2907 18.4761 83.6774C7.02776 95.9044 3.73859 113.517 1.95812 130.179C0.238651 146.297 -0.532334 162.536 0.399504 178.715C1.70852 201.296 7.34392 225.4 24.5053 240.123C30.5123 245.269 37.6176 248.959 44.8615 252.116C64.5445 260.688 85.6058 265.643 107.04 266.744C118.133 267.3 129.309 266.833 140.442 266.355L183.289 264.51C195.492 263.988 207.65 263.465 219.809 262.62C235.023 261.57 251.009 259.725 263.328 250.727C279.469 238.933 285.598 217.019 283.662 197.094C281.726 177.17 273.023 158.635 264.47 140.55C255.917 122.465 247.237 103.908 245.334 83.983C244.935 79.7814 244.819 75.463 243.243 71.5448C241.546 67.3376 238.312 63.9807 235.428 60.4793C227.485 50.8477 221.817 39.5599 214.495 29.467C183.583 -13.172 111.688 -6.047 77.5036 28.5778Z" fill="#3703A5"/>
<path opacity="0.42" d="M144.28 248.671C211.854 248.671 266.634 241.975 266.634 233.715C266.634 225.455 211.854 218.759 144.28 218.759C76.7059 218.759 21.9263 225.455 21.9263 233.715C21.9263 241.975 76.7059 248.671 144.28 248.671Z" fill="#3703A5"/>
<path d="M92.9845 216.319L93.6556 223.383C93.6556 223.383 90.9544 227.479 87.4323 227.74C83.9102 228.001 82.7065 226.306 82.7065 226.306L83.2612 215.913" fill="#AD7862"/>
<path d="M43.8799 217.069L43.1865 224.328C43.1865 224.328 45.9599 228.529 49.5818 228.802C53.2038 229.074 54.4352 227.329 54.4352 227.329L53.8417 216.652" fill="#AD7862"/>
<path d="M52.5548 58.3677C52.5548 58.3677 38.544 65.1481 38.2278 67.3712C37.9117 69.5943 39.8142 124.26 39.8142 124.26C39.8142 124.26 44.3624 130.168 58.2901 130.168C72.5561 130.168 77.0933 126.178 76.8659 124.177C76.0782 117.28 79.7778 67.8159 79.4617 65.476C79.1455 63.1362 66.2218 58.4121 66.2218 58.4121L52.5548 58.3677Z" fill="#3703A5"/>
<path opacity="0.58" d="M61.2687 93.0647C61.2687 93.0647 44.3957 96.0937 43.3529 95.0488C42.41 94.104 38.3609 66.5486 38.2278 67.3823C38.0004 68.9829 38.9212 95.2267 39.4536 109.849C48.1175 107.226 66.2385 98.0111 66.2385 98.0111C64.8955 96.0735 63.2114 94.3973 61.2687 93.0647V93.0647Z" fill="url(#paint0_linear)"/>
<path d="M54.7455 93.2651C55.9647 92.3407 57.2371 91.4889 58.556 90.7141C60.0204 89.9304 66.6819 89.2468 67.8744 89.6025C69.067 89.9582 68.5456 90.6529 67.1312 90.9253C65.7168 91.1976 64.5021 90.8919 64.1914 91.7478C63.8808 92.6037 65.7667 94.3599 65.6391 95.855C65.5115 97.35 65.5559 97.25 62.1558 98.4171C58.7557 99.5842 55.5387 101.157 54.6678 98.5172C53.797 95.8772 53.6084 93.6486 54.7455 93.2651Z" fill="#BB826C"/>
<path d="M52.599 49.8972C52.599 49.8972 52.4936 54.7936 52.5547 58.3783C52.599 61.0516 53.5142 66.1592 59.2106 66.1592C64.9071 66.1592 65.5338 59.6455 65.4395 58.3672C65.3674 57.4557 65.8056 55.5883 65.4395 52.6705C65.0568 49.5637 52.9152 47.7241 52.599 49.8972Z" fill="#BB826C"/>
<path d="M52.5212 57.9341C52.1159 57.7722 51.6653 57.7661 51.2558 57.9169C50.8463 58.0677 50.5068 58.3648 50.3026 58.7511C49.4484 60.1794 49.3985 63.0472 50.3026 66.9655C51.2067 70.8837 51.9666 71.8841 51.9666 71.8841C51.9666 71.8841 55.6884 66.6042 58.3064 66.393C58.2897 66.393 53.1314 65.3759 52.5212 57.9341Z" fill="#F3FCFF"/>
<path d="M65.478 57.9341C65.8833 57.7722 66.334 57.7661 66.7435 57.9169C67.153 58.0677 67.4925 58.3648 67.6967 58.7511C68.5509 60.1794 68.6008 63.0472 67.6967 66.9655C66.7926 70.8837 66.0327 71.8841 66.0327 71.8841C66.0327 71.8841 62.3109 66.6042 59.6929 66.393C59.7095 66.393 64.8845 65.3759 65.478 57.9341Z" fill="#F3FCFF"/>
<path d="M39.814 124.26C39.814 124.26 38.7767 132.358 40.768 165.265C42.6206 195.922 43.1475 217.386 43.1475 217.386C43.1475 217.386 43.3472 219.892 48.6165 219.965C53.8858 220.037 55.2725 216.552 55.2725 216.552L60.4475 137.938L81.9187 218.164C81.9187 218.164 88.2418 221.81 93.1728 219.075C96.6672 217.13 76.8823 124.177 76.8823 124.177C76.8823 124.177 59.9539 133.475 39.814 124.26Z" fill="#525263"/>
<path opacity="0.58" d="M39.814 124.26C39.814 124.26 38.7767 132.358 40.768 165.265C42.6206 195.922 43.1475 217.386 43.1475 217.386C43.1475 217.386 43.3472 219.892 48.6165 219.965C53.8858 220.037 55.2725 216.552 55.2725 216.552L60.4475 137.938L81.9187 218.164C81.9187 218.164 88.2418 221.81 93.1728 219.075C96.6672 217.13 76.8823 124.177 76.8823 124.177C76.8823 124.177 59.9539 133.475 39.814 124.26Z" fill="url(#paint1_linear)"/>
<path d="M40.8347 64.8423C38.8411 66.2052 37.1197 67.93 35.7595 69.9276C33.5409 73.2123 29.8745 100.756 31.5663 108.215C32.2818 111.372 58.1902 99.5894 58.1902 99.5894C58.1902 99.5894 57.5801 94.3095 54.8622 92.5088C54.8622 92.5088 42.1437 95.2432 41.1953 94.2928C40.2468 93.3424 40.8347 64.8423 40.8347 64.8423Z" fill="#3703A5"/>
<path d="M69.7769 32.6072C69.9821 33.7188 70.3648 34.7358 70.5534 35.8752C70.8086 37.3813 70.8807 38.9653 71.5907 40.3214C71.9013 40.9272 72.3339 41.5441 72.2341 42.2166C72.1342 42.8891 71.4187 43.4226 70.8973 43.9562C69.2943 45.6235 69.8767 48.2579 69.3831 50.3642C68.8284 52.5873 70.4203 57.6505 63.5813 55.5218C61.6344 54.916 52.1552 52.2483 51.4785 46.3627C50.6354 39.0042 46.1315 29.6894 55.0172 26.5826C58.6836 25.2988 64.6462 23.3758 67.7746 26.8494C68.9893 28.1944 69.5107 30.1173 69.6826 31.8847C69.7048 32.1459 69.7381 32.3794 69.7769 32.6072Z" fill="#BB826C"/>
<path d="M64.9292 20.5751C65.5993 20.5367 66.2699 20.6417 66.8963 20.8832C67.5228 21.1247 68.0907 21.4971 68.5623 21.9757C69.1169 22.6148 69.5052 23.5096 70.3095 23.7764C70.6922 23.9042 71.1137 23.8598 71.502 23.9765C72.6834 24.3211 72.983 25.8828 72.7722 27.0944C72.5614 28.306 72.0622 29.562 72.4449 30.7291C72.6662 31.1681 72.8107 31.6418 72.872 32.1297C72.8443 33.0078 71.8182 33.5525 70.9418 33.4913C70.0654 33.4302 69.2778 32.98 68.4236 32.7299C66.9482 32.2909 65.3619 32.4798 63.831 32.6744C62.8032 32.7353 61.798 33.0018 60.8746 33.458C60.4147 33.6912 60.0333 34.0547 59.7779 34.5033C59.5224 34.9519 59.4043 35.4658 59.438 35.9812C59.5761 36.3771 59.6123 36.8014 59.5434 37.215C59.3854 37.4845 59.185 37.7266 58.9499 37.932C58.24 38.7601 58.4896 40.005 58.7114 41.0721C58.9555 42.2448 58.5617 45.4072 57.0474 43.851C56.0213 42.795 56.6592 41.0721 54.8842 40.383C52.2828 39.3548 51.2179 43.7621 53.9468 46.9967C56.6758 50.2313 54.1188 52.2988 52.3494 52.8434C50.6854 53.3492 48.6775 45.3405 48.4113 44.3957C47.3796 40.6886 45.233 34.3528 47.3019 30.7792C47.9343 29.6954 48.7441 28.6617 48.9659 27.4445C49.1268 26.6275 49.0214 25.7772 49.2932 24.9769C49.5093 24.461 49.8384 24.0005 50.256 23.6291C50.6736 23.2578 51.1691 22.9853 51.706 22.8316C52.7907 22.5291 53.9084 22.3611 55.034 22.3314C56.9695 22.1633 58.889 21.8437 60.7748 21.3754C62.0908 20.9598 63.4488 20.6914 64.8238 20.5751H64.9292Z" fill="#3F3D56"/>
<path d="M65.5615 56.0053C65.5615 56.0053 58.6392 53.4487 55.5054 52.0093C55.5054 52.0093 62.0227 58.2117 65.3895 58.1673L65.5615 56.0053Z" fill="#AD7862"/>
<path d="M79.4616 65.4756C79.4616 65.4756 87.4377 100.834 87.9313 105.386C88.425 109.938 82.6121 112.216 80.0107 111.499C74.2366 109.871 75.1574 99.9892 75.1574 99.9892L79.4616 65.4756Z" fill="#3703A5"/>
<path d="M87.7372 104.091L95.8408 130.307L90.2942 134.231C90.2942 134.231 78.5907 117.496 77.6644 112.511C76.7381 107.526 76.3998 100.706 81.292 100.84" fill="#3703A5"/>
<path d="M98.1649 136.665C97.7267 135.52 97.1166 134.409 96.7838 133.236C96.5786 132.508 96.6118 131.769 96.1126 131.157C94.5041 129.196 91.6365 130.424 90.921 132.502C90.5277 133.886 90.6337 135.364 91.2205 136.676C91.7419 138.005 92.5129 139.211 93.1396 140.489C93.8338 141.742 94.1787 143.158 94.138 144.591C94.0135 145.304 93.9302 146.024 93.8884 146.747C93.8784 146.98 93.9446 147.211 94.077 147.403C94.4542 147.858 95.1863 147.592 95.6745 147.236C98.7806 144.88 99.4573 140.144 98.1649 136.665Z" fill="#BB826C"/>
<path d="M90.2716 135.131L88.6631 132.719L95.2636 128.434L97.1051 131.052L90.2716 135.131Z" fill="#F3FCFF"/>
<path d="M56.0103 91.0249L59.1108 99.9673L56.4762 101.423C56.4762 101.423 52.3938 93.1758 52.1997 92.77C52.0056 92.3643 56.0103 91.0249 56.0103 91.0249Z" fill="#F3FCFF"/>
<path d="M33.3467 225.1C31.9101 225.573 30.357 226.378 29.9521 227.84C29.5472 229.302 30.4679 230.786 31.7215 231.553C32.975 232.32 34.4948 232.481 35.9647 232.564C41.7343 232.9 47.5197 232.278 53.0872 230.725C53.801 230.588 54.4621 230.252 54.9953 229.758C55.6387 229.029 55.6553 227.951 55.6387 226.979L55.5666 222.577C55.5911 222.327 55.5263 222.077 55.3835 221.871C55.2812 221.779 55.1606 221.71 55.0297 221.667C54.8987 221.625 54.7603 221.611 54.6236 221.627C52.1276 221.577 50.0421 222.227 47.6127 221.288C46.0485 220.682 44.7561 219.831 43.1753 220.704C41.9717 221.354 41.1952 222.566 39.925 223.183C37.8727 224.178 35.4877 224.411 33.3467 225.1Z" fill="#525263"/>
<path d="M72.3781 226.095C70.9359 226.567 69.3829 227.373 68.978 228.835C68.5731 230.296 69.4938 231.78 70.7529 232.542C72.012 233.303 73.5262 233.476 74.9905 233.559C80.7602 233.895 86.5456 233.273 92.1131 231.719C92.828 231.585 93.4899 231.25 94.0211 230.752C94.6645 230.019 94.6867 228.946 94.6701 227.973L94.5924 223.572C94.618 223.321 94.5552 223.069 94.415 222.86C94.3105 222.77 94.1888 222.701 94.0573 222.659C93.9257 222.617 93.787 222.602 93.6495 222.616C91.1535 222.571 89.068 223.216 86.6441 222.282C85.0799 221.676 83.7875 220.826 82.1735 221.699C80.9754 222.349 80.1933 223.56 78.9231 224.177C76.8986 225.15 74.5024 225.389 72.3781 226.095Z" fill="#525263"/>
<path opacity="0.58" d="M33.3467 225.1C31.9101 225.573 30.357 226.378 29.9521 227.84C29.5472 229.302 30.4679 230.786 31.7215 231.553C32.975 232.32 34.4948 232.481 35.9647 232.564C41.7343 232.9 47.5197 232.278 53.0872 230.725C53.801 230.588 54.4621 230.252 54.9953 229.758C55.6387 229.029 55.6553 227.951 55.6387 226.979L55.5666 222.577C55.5911 222.327 55.5263 222.077 55.3835 221.871C55.2812 221.779 55.1606 221.71 55.0297 221.667C54.8987 221.625 54.7603 221.611 54.6236 221.627C52.1276 221.577 50.0421 222.227 47.6127 221.288C46.0485 220.682 44.7561 219.831 43.1753 220.704C41.9717 221.354 41.1952 222.566 39.925 223.183C37.8727 224.178 35.4877 224.411 33.3467 225.1Z" fill="url(#paint2_linear)"/>
<path opacity="0.58" d="M72.3781 226.095C70.9359 226.567 69.3829 227.373 68.978 228.835C68.5731 230.296 69.4938 231.78 70.7529 232.542C72.012 233.303 73.5262 233.476 74.9905 233.559C80.7602 233.895 86.5456 233.273 92.1131 231.719C92.828 231.585 93.4899 231.25 94.0211 230.752C94.6645 230.019 94.6867 228.946 94.6701 227.973L94.5924 223.572C94.618 223.321 94.5552 223.069 94.415 222.86C94.3105 222.77 94.1888 222.701 94.0573 222.659C93.9257 222.617 93.787 222.602 93.6495 222.616C91.1535 222.571 89.068 223.216 86.6441 222.282C85.0799 221.676 83.7875 220.826 82.1735 221.699C80.9754 222.349 80.1933 223.56 78.9231 224.177C76.8986 225.15 74.5024 225.389 72.3781 226.095Z" fill="url(#paint3_linear)"/>
<path d="M74.3696 79.1533L75.1073 107.676L77.0653 110.549L74.3696 79.1533Z" fill="#3703A5"/>
<path d="M54.7954 67.3653C54.7954 67.3653 58.4229 77.1414 58.8445 77.9251C59.266 78.7087 62.3278 67.7266 62.3278 67.7266C62.3278 67.7266 63.5425 65.9425 58.5949 66.1426C57.2334 66.1512 55.9073 66.578 54.7954 67.3653V67.3653Z" fill="#F3FCFF"/>
<path d="M76.8213 123.704C76.8213 123.704 66.2827 126.583 61.2463 126.4C56.21 126.216 39.7697 122.904 39.7697 122.904C39.7697 122.904 37.9393 129.984 38.8988 130.685C39.8584 131.385 44.7838 130.951 51.756 131.24C58.7281 131.529 62.9713 134.703 68.5346 134.575C74.0979 134.447 77.4093 126.878 77.4093 126.878L76.8213 123.704Z" fill="#F3FCFF"/>
<path d="M72.9762 59.2325L62.282 129.341C61.6549 133.452 64.4728 137.295 68.5759 137.923L184.437 155.667C188.54 156.295 192.375 153.472 193.002 149.36L203.696 79.2521C204.323 75.1407 201.505 71.2984 197.402 70.67L81.5412 52.926C77.438 52.2976 73.6033 55.1212 72.9762 59.2325Z" fill="#3703A5"/>
<path d="M72.588 61.7877L61.8938 131.896C61.2667 136.007 64.0846 139.85 68.1877 140.478L184.049 158.222C188.152 158.85 191.987 156.027 192.614 151.916L203.308 81.8073C203.935 77.6959 201.117 73.8536 197.014 73.2252L81.153 55.4812C77.0498 54.8528 73.2151 57.6764 72.588 61.7877Z" fill="#3703A5"/>
<path opacity="0.58" d="M203.307 81.7989L192.613 151.916C192.537 152.413 192.411 152.9 192.236 153.372C191.638 155.002 190.497 156.375 189.005 157.259C187.514 158.143 185.763 158.484 184.049 158.224L68.2129 140.478C67.2347 140.332 66.2949 139.994 65.4473 139.483C64.5998 138.973 63.8611 138.299 63.2737 137.502C62.6863 136.705 62.2616 135.799 62.0241 134.838C61.7866 133.876 61.7409 132.876 61.8897 131.896L66.7929 99.7782L72.5836 61.7855C72.8859 59.8113 73.9573 58.0379 75.5628 56.8543C77.1683 55.6707 79.1768 55.1735 81.1477 55.4718L197.012 73.2233C198.981 73.5248 200.751 74.5974 201.931 76.2054C203.112 77.8135 203.607 79.8253 203.307 81.7989V81.7989Z" fill="url(#paint4_linear)"/>
<path opacity="0.58" d="M197.134 121.254L192.236 153.372C191.638 155.002 190.497 156.375 189.005 157.259C187.514 158.143 185.763 158.484 184.049 158.224L68.2129 140.478C67.2347 140.332 66.2949 139.994 65.4473 139.483C64.5998 138.973 63.8611 138.3 63.2737 137.502C62.6863 136.705 62.2616 135.8 62.0241 134.838C61.7866 133.876 61.7409 132.876 61.8897 131.897L66.7929 99.7785C67.3898 98.1478 68.5309 96.774 70.0229 95.8897C71.5149 95.0055 73.2661 94.6652 74.9798 94.9266L190.844 112.678C191.819 112.827 192.755 113.167 193.599 113.679C194.442 114.191 195.177 114.864 195.761 115.66C196.346 116.457 196.767 117.361 197.003 118.32C197.238 119.28 197.283 120.277 197.134 121.254V121.254Z" fill="url(#paint5_linear)"/>
<path d="M78.2133 80.8775L75.9121 95.9639C75.5645 98.2426 77.1263 100.372 79.4004 100.72L97.5875 103.506C99.8616 103.854 101.987 102.289 102.335 100.01L104.636 84.9241C104.983 82.6454 103.422 80.5158 101.147 80.1675L82.9604 77.3822C80.6863 77.0339 78.5609 78.5988 78.2133 80.8775Z" fill="#FDB523"/>
<path d="M103.073 94.5708L102.696 97.044L95.1085 95.8824C94.9492 96.3682 94.6838 96.8124 94.3317 97.1825C93.9796 97.5527 93.5495 97.8395 93.0728 98.0222L92.8066 98.1055L92.5348 98.0722C91.908 97.9944 86.4335 97.3108 84.9803 96.905C83.527 96.4993 82.7893 94.6819 82.512 93.5093L76.4717 92.5811L76.8489 90.1079L84.714 91.3139L84.8527 92.2699C84.9858 93.3147 85.4074 94.3818 85.6958 94.5208C86.5721 94.7653 90.0665 95.2544 92.4461 95.5545C92.7363 95.2434 92.8919 94.8297 92.8787 94.404L92.9619 93.0368L103.073 94.5708Z" fill="#EFA92B"/>
<path d="M103.778 89.9521L104.155 87.4789L96.5725 86.3174C96.5633 85.806 96.4411 85.3031 96.2148 84.8447C95.9884 84.3864 95.6636 83.9839 95.2635 83.6663L95.0361 83.5051L94.7643 83.4551C94.1431 83.344 88.663 82.3436 87.2098 82.3047C85.6345 82.2602 84.4364 83.7719 83.8374 84.8112L77.7971 83.8886L77.4199 86.3618L85.2851 87.5679L85.6789 86.7008C86.1171 85.7505 86.8603 84.8612 87.1599 84.8112C88.064 84.8112 91.5473 85.417 93.9101 85.845C94.0896 86.2302 94.1154 86.6696 93.9822 87.0732L93.6494 88.4015L103.778 89.9521Z" fill="#EFA92B"/>
<path d="M77.1992 87.9073L77.1196 88.4292L103.482 92.4665L103.561 91.9446L77.1992 87.9073Z" fill="#EFA92B"/>
<path d="M75.9517 96.0933L75.8721 96.6152L102.234 100.653L102.314 100.131L75.9517 96.0933Z" fill="#EFA92B"/>
<path d="M78.4468 79.7203L78.3672 80.2422L104.729 84.2795L104.809 83.7576L78.4468 79.7203Z" fill="#EFA92B"/>
<path opacity="0.32" d="M92.7507 119.865L77.3211 117.432C75.1967 117.098 73.2037 118.552 72.8695 120.68L72.7437 121.482C72.4095 123.61 73.8607 125.607 75.985 125.942L91.4147 128.374C93.539 128.709 95.532 127.255 95.8662 125.127L95.992 124.325C96.3262 122.196 94.875 120.199 92.7507 119.865Z" fill="#3703A5"/>
<path opacity="0.32" d="M121.585 125.819L106.122 123.315C103.993 122.97 101.988 124.42 101.644 126.553L101.515 127.356C101.17 129.49 102.617 131.498 104.746 131.843L120.21 134.347C122.339 134.692 124.343 133.242 124.687 131.109L124.817 130.306C125.161 128.172 123.714 126.164 121.585 125.819Z" fill="#3703A5"/>
<path opacity="0.32" d="M151.034 130.072L135.605 127.64C133.48 127.305 131.487 128.759 131.153 130.888L131.027 131.689C130.693 133.818 132.144 135.815 134.269 136.15L149.698 138.582C151.823 138.917 153.816 137.463 154.15 135.334L154.276 134.533C154.61 132.404 153.159 130.407 151.034 130.072Z" fill="#3703A5"/>
<path opacity="0.32" d="M180.173 135.181L164.743 132.749C162.619 132.415 160.626 133.869 160.291 135.997L160.166 136.799C159.831 138.927 161.283 140.924 163.407 141.259L178.837 143.691C180.961 144.026 182.954 142.572 183.288 140.443L183.414 139.642C183.748 137.513 182.297 135.516 180.173 135.181Z" fill="#3703A5"/>
<path d="M237.852 214.585L245.534 227.634C247.094 227.261 248.474 226.353 249.437 225.069C250.4 223.784 250.885 222.203 250.809 220.598L244.153 208.065" fill="#F1DFCE"/>
<path d="M245.534 227.634C245.534 227.634 243.315 237.038 240.248 238.139C237.181 239.239 244.563 237.788 246.006 236.343C247.448 234.898 249.589 224.794 249.589 224.794" fill="#F1DFCE"/>
<path d="M186.285 217.803L185.109 231.447C186.452 231.992 187.943 232.05 189.325 231.611C190.706 231.172 191.891 230.262 192.675 229.041L194.339 216.302" fill="#F1DFCE"/>
<path d="M185.109 231.447C185.109 231.447 176.789 238.95 173.954 238.117C171.12 237.283 179.085 238.394 180.899 238.083C182.713 237.772 191.903 232.325 191.903 232.325" fill="#F1DFCE"/>
<path d="M192.73 228.596C192.73 228.596 194.61 230.497 194.394 232.092C194.177 233.687 193.345 240.428 193.345 240.428C192.944 240.542 192.514 240.5 192.142 240.312C191.532 239.989 191.676 232.942 190.411 234.826C188.026 238.372 188.808 239.717 183.4 240.517C181.897 240.74 167.465 239.117 175.962 237.138C175.962 237.138 181.27 237.555 183.555 235.265C185.841 232.975 189.745 228.001 192.73 228.596Z" fill="#525263"/>
<path d="M198.731 47.0576C198.67 47.7801 198.082 56.1612 198.731 59.7349C199.38 63.3085 201.649 68.1882 204.572 67.5157C207.495 66.8432 208.787 65.8873 208.787 67.5157C208.684 69.1536 208.467 70.7822 208.138 72.3899C208.138 72.3899 211.705 74.9909 214.95 74.0127C218.194 73.0346 218.832 70.4391 218.832 70.4391C218.832 70.4391 217.213 68.4883 217.862 63.2863C218.511 58.0842 223.375 46.7131 216.564 41.1831C212.426 37.854 199.558 37.2482 198.731 47.0576Z" fill="#F1DFCE"/>
<path d="M198.41 39.2598C198.41 39.2598 193.762 43.1168 196.746 48.7802C197.633 50.4475 200.972 46.0847 205.193 47.0573C209.414 48.0299 208.438 58.7619 209.409 58.434C210.379 58.1061 209.087 54.5436 211.028 52.5817C212.97 50.6198 214.911 53.5599 214.6 56.4721C214.29 59.3844 212.936 59.7234 212.936 59.7234C212.936 59.7234 213.18 62.8635 213.685 63.8806C214.062 64.6309 219.343 62.3689 219.343 62.3689C219.343 62.3689 223.658 50.6198 222.671 46.7238C221.683 42.8278 217.157 37.2756 212.287 37.2756C207.417 37.2756 201.649 35.6806 198.41 39.2598Z" fill="#3F3D56"/>
<path d="M181.664 94.0539C181.664 94.0539 180 87.6181 177.859 86.2008C175.718 84.7836 174.942 83.7165 174.454 84.1167C173.965 84.5168 174.836 85.8896 174.836 85.8896C174.836 85.8896 176.445 87.4402 175.341 87.6181C174.237 87.7959 166.389 82.7828 164.17 82.9607C161.951 83.1385 163.283 86.4232 162.706 87.8848C162.129 89.3465 167.62 93.2536 169.833 94.493C172.046 95.7324 175.014 97.911 176.428 98.7113C177.843 99.5117 181.703 95.9658 181.664 94.0539Z" fill="#F1DFCE"/>
<path d="M233.193 137.477L231.096 169.039L250.271 217.319C250.271 217.319 250.992 221.944 241.651 223.35L216.137 172.135L211.034 132.903" fill="#3703A5"/>
<path opacity="0.58" d="M233.193 137.477L231.096 169.039L250.271 217.319C250.271 217.319 250.992 221.944 241.651 223.35L216.137 172.135L211.034 132.903" fill="url(#paint6_linear)"/>
<path d="M198.853 134.325L183.211 226.212C183.211 226.212 186.323 229.885 195.736 227.712L204.66 186.657L225.394 138.861C225.394 138.861 211.871 126.344 198.853 134.325Z" fill="#3703A5"/>
<path opacity="0.58" d="M198.853 134.325L183.211 226.212C183.211 226.212 186.323 229.885 195.736 227.712L204.66 186.657L225.394 138.861C225.394 138.861 211.871 126.344 198.853 134.325Z" fill="url(#paint7_linear)"/>
<path d="M215.244 86.0897C215.244 86.0897 210.202 111.972 208.427 116.352C206.652 120.731 199.791 128.668 194.316 124.327C192.71 122.949 191.217 121.443 189.851 119.825L189.064 118.947C182.801 111.689 174.836 100.707 174.836 100.707C175.203 93.2925 181.664 94.0817 181.664 94.0817L193.911 108.943C193.911 108.943 201.344 79.4037 205.349 74.2461C207.795 71.1115 213.946 70.4946 213.946 70.4946C217.973 71.5061 215.244 86.0897 215.244 86.0897Z" fill="white"/>
<path d="M221.822 72.5398C227.485 79.6371 232.538 130.34 233.991 133.575C233.991 133.575 224.473 137.521 209.808 138.427C205.775 138.626 201.735 138.189 197.838 137.132C197.838 137.132 204.377 95.0321 204.583 89.0853C204.788 83.1385 207.489 72.3787 207.489 72.3787C207.489 72.3787 217.329 66.9098 221.822 72.5398Z" fill="#F3FCFF"/>
<path d="M198.31 137.288C198.31 137.288 195.991 143.218 196.568 143.401C197.145 143.585 202.914 140.445 204.694 141.512C206.475 142.579 211.711 148.048 218.711 149.509C225.71 150.971 232.888 145.474 233.193 141.423C233.498 137.371 233.992 133.586 233.992 133.586C233.992 133.586 202.664 139.3 198.31 137.288Z" fill="#F3FCFF"/>
<path opacity="0.58" d="M209.397 95.0488C209.397 95.0488 204.172 119.831 202.78 122.621C201.388 125.411 199.552 125.3 199.552 125.3L199.297 127.623L203.823 126.111L209.397 95.0488Z" fill="url(#paint8_linear)"/>
<path d="M218.788 41.472C218.788 41.472 222.965 35.2862 227.663 39.4267C232.361 43.5673 227.008 50.6701 228.184 56.9892C229.36 63.3084 234.186 71.6061 231.573 73.8625C228.961 76.119 230.924 73.8625 230.924 73.8625C230.924 73.8625 229.992 67.699 225.566 66.4819C221.14 65.2647 218.4 61.7244 218.267 55.7832" fill="#3F3D56"/>
<path d="M251.602 219.837C251.602 219.837 250.265 220.587 249.6 223.644C248.934 226.701 247.198 234.309 245.451 235.16C243.703 236.01 243.049 235.11 242.583 235.16C242.117 235.21 238.656 238.817 238.839 239.167C239.022 239.517 239.333 239.723 241.917 239.167C244.502 238.611 249.389 236.81 249.511 236.06C249.633 235.31 250.892 228.652 252.062 228.551C253.233 228.451 252.273 235.66 252.689 235.71C253.105 235.76 253.715 235.86 253.798 235.06C253.882 234.259 255.041 225.695 254.619 223.694C254.198 221.693 253.233 220.487 251.602 219.837Z" fill="#525263"/>
<path opacity="0.58" d="M192.73 228.596C192.73 228.596 194.61 230.497 194.394 232.092C194.177 233.687 193.345 240.428 193.345 240.428C192.944 240.542 192.514 240.5 192.142 240.312C191.532 239.989 191.676 232.942 190.411 234.826C188.026 238.372 188.808 239.717 183.4 240.517C181.897 240.74 167.465 239.117 175.962 237.138C175.962 237.138 181.27 237.555 183.555 235.265C185.841 232.975 189.745 228.001 192.73 228.596Z" fill="url(#paint9_linear)"/>
<path opacity="0.58" d="M251.602 219.837C251.602 219.837 250.265 220.587 249.6 223.644C248.934 226.701 247.198 234.309 245.451 235.16C243.703 236.01 243.049 235.11 242.583 235.16C242.117 235.21 238.656 238.817 238.839 239.167C239.022 239.517 239.333 239.723 241.917 239.167C244.502 238.611 249.389 236.81 249.511 236.06C249.633 235.31 250.892 228.652 252.062 228.551C253.233 228.451 252.273 235.66 252.689 235.71C253.105 235.76 253.715 235.86 253.798 235.06C253.882 234.259 255.041 225.695 254.619 223.694C254.198 221.693 253.233 220.487 251.602 219.837Z" fill="url(#paint10_linear)"/>
<path d="M212.554 62.1303C213.491 62.1303 214.251 61.3689 214.251 60.4297C214.251 59.4904 213.491 58.729 212.554 58.729C211.616 58.729 210.856 59.4904 210.856 60.4297C210.856 61.3689 211.616 62.1303 212.554 62.1303Z" fill="#3703A5"/>
<path d="M179.845 126.655L207.212 130.029L204.871 164.643L200.628 166.838L177.21 160.241L179.845 126.655Z" fill="#3703A5"/>
<path opacity="0.58" d="M179.845 126.655L207.212 130.029L204.871 164.643L200.628 166.838L177.21 160.241L179.845 126.655Z" fill="url(#paint11_linear)"/>
<path d="M175.602 128.856L202.969 132.23L200.628 166.838L172.967 162.442L175.602 128.856Z" fill="#3703A5"/>
<path d="M175.602 128.856L179.845 126.655L207.212 130.029L202.969 132.23L175.602 128.856Z" fill="#3703A5"/>
<path opacity="0.58" d="M175.602 128.856L179.845 126.655L207.212 130.029L202.969 132.23L175.602 128.856Z" fill="url(#paint12_linear)"/>
<path d="M203.384 128.14C203.407 128.041 203.407 127.939 203.384 127.84C203.341 127.74 203.267 127.656 203.174 127.601C202.782 127.399 202.341 127.314 201.903 127.356C198.892 127.356 195.874 127.54 192.862 127.706C192.667 127.702 192.474 127.754 192.308 127.856C192.184 127.967 192.089 128.107 192.03 128.262C191.793 128.804 191.593 129.361 191.431 129.929C191.379 130.039 191.352 130.158 191.352 130.28C191.352 130.401 191.379 130.52 191.431 130.63C191.545 130.749 191.692 130.832 191.853 130.869C192.826 131.127 193.821 131.289 194.826 131.352L201.41 131.997C201.926 132.047 202.319 132.208 202.63 131.786C202.799 131.47 202.913 131.128 202.968 130.774C203.211 129.916 203.351 129.031 203.384 128.14V128.14Z" fill="#3703A5"/>
<path opacity="0.58" d="M203.141 128.234C203.163 128.137 203.163 128.036 203.141 127.939C203.101 127.837 203.026 127.753 202.93 127.7C202.54 127.496 202.098 127.411 201.66 127.456C198.648 127.456 195.631 127.639 192.619 127.806C192.434 127.777 192.245 127.819 192.088 127.921C191.932 128.024 191.818 128.18 191.77 128.362C191.532 128.903 191.332 129.46 191.171 130.029C191.119 130.137 191.091 130.256 191.091 130.376C191.091 130.497 191.119 130.615 191.171 130.724C191.282 130.847 191.43 130.931 191.593 130.963C192.566 131.22 193.561 131.384 194.566 131.452L201.15 132.091C201.665 132.141 202.059 132.307 202.37 131.885C202.537 131.569 202.651 131.227 202.708 130.874C202.956 130.014 203.102 129.128 203.141 128.234V128.234Z" fill="url(#paint13_linear)"/>
<path d="M204.028 129.857C204.05 129.8 204.05 129.736 204.028 129.679C203.975 129.608 203.902 129.556 203.817 129.529C203.415 129.385 202.991 129.314 202.564 129.318C199.552 129.185 196.535 129.135 193.523 129.09C193.336 129.075 193.148 129.096 192.968 129.151C192.852 129.197 192.751 129.276 192.68 129.379C192.432 129.679 192.215 130.003 192.031 130.346C191.959 130.479 191.898 130.635 192.031 130.757C192.153 130.844 192.293 130.902 192.441 130.924C193.417 131.126 194.405 131.27 195.398 131.358L201.954 132.058C202.464 132.113 202.858 132.23 203.179 131.997C203.344 131.83 203.471 131.629 203.551 131.408C203.806 130.925 203.968 130.399 204.028 129.857V129.857Z" fill="#3703A5"/>
<path opacity="0.58" d="M203.779 129.901C203.801 129.846 203.801 129.784 203.779 129.729C203.729 129.656 203.657 129.601 203.573 129.573C203.17 129.429 202.743 129.359 202.314 129.368C199.302 129.229 196.291 129.184 193.273 129.134C193.086 129.122 192.899 129.143 192.719 129.195C192.605 129.247 192.508 129.327 192.436 129.429C192.187 129.727 191.968 130.049 191.781 130.39C191.709 130.524 191.648 130.685 191.781 130.807C191.906 130.892 192.048 130.947 192.197 130.968C193.173 131.173 194.16 131.318 195.154 131.402L201.71 132.107C202.22 132.163 202.614 132.28 202.936 132.041C203.099 131.876 203.224 131.677 203.302 131.457C203.558 130.974 203.72 130.446 203.779 129.901V129.901Z" fill="url(#paint14_linear)"/>
<path d="M186.468 125.25C186.659 124.82 186.998 124.473 187.422 124.271C187.799 124.18 188.193 124.18 188.57 124.271C190.234 124.483 191.992 124.349 193.468 125.122C193.668 125.207 193.837 125.353 193.95 125.539C194.045 125.761 194.068 126.008 194.017 126.244C193.875 127.449 193.608 128.636 193.218 129.785C193.172 129.948 193.095 130.101 192.991 130.235C192.852 130.402 192.941 130.896 192.724 130.902C190.811 130.941 188.492 130.307 186.579 130.213C185.414 130.157 185.37 129.712 185.469 128.456C185.574 127.329 185.914 126.236 186.468 125.25V125.25Z" fill="#3703A5"/>
<path opacity="0.58" d="M186.468 125.25C186.659 124.82 186.998 124.473 187.422 124.271C187.799 124.18 188.193 124.18 188.57 124.271C190.234 124.483 191.992 124.349 193.468 125.122C193.668 125.207 193.837 125.353 193.95 125.539C194.045 125.761 194.068 126.008 194.017 126.244C193.875 127.449 193.608 128.636 193.218 129.785C193.172 129.948 193.095 130.101 192.991 130.235C192.852 130.402 192.941 130.896 192.724 130.902C190.811 130.941 188.492 130.307 186.579 130.213C185.414 130.157 185.37 129.712 185.469 128.456C185.574 127.329 185.914 126.236 186.468 125.25V125.25Z" fill="url(#paint15_linear)"/>
<path d="M193.911 108.943C193.911 108.943 198.726 120.009 198.349 131.935L199.691 132.086C199.691 132.086 198.154 113.095 194.349 107.665C194.333 107.665 192.458 106.72 193.911 108.943Z" fill="#3703A5"/>
<path d="M189.541 120.686C189.541 120.87 189.568 121.048 189.58 121.242C189.587 121.486 189.572 121.729 189.535 121.97C189.225 124.305 188.925 126.639 188.62 128.973L187.344 128.934C187.341 126.676 187.596 124.426 188.104 122.226C188.333 121.138 188.641 120.068 189.025 119.025C189.025 118.997 189.025 118.964 189.064 118.93L189.851 119.836C189.694 120.097 189.589 120.386 189.541 120.686V120.686Z" fill="#3703A5"/>
<path d="M178.768 124.671C178.771 124.54 178.82 124.414 178.907 124.316C179.005 124.241 179.123 124.198 179.245 124.193C182.174 123.755 185.155 123.826 188.059 124.405L188.497 129.179C188.536 129.557 188.531 130.012 188.214 130.212C188.036 130.306 187.832 130.343 187.632 130.318C185.263 130.274 182.902 130.023 180.577 129.568C180.183 129.49 179.345 129.479 179.04 129.206C178.735 128.934 178.768 128.44 178.719 128.095C178.574 126.957 178.591 125.804 178.768 124.671V124.671Z" fill="#3703A5"/>
<path opacity="0.58" d="M178.768 124.671C178.771 124.54 178.82 124.414 178.907 124.316C179.005 124.241 179.123 124.198 179.245 124.193C182.174 123.755 185.155 123.826 188.059 124.405L188.497 129.179C188.536 129.557 188.531 130.012 188.214 130.212C188.036 130.306 187.832 130.343 187.632 130.318C185.263 130.274 182.902 130.023 180.577 129.568C180.183 129.49 179.345 129.479 179.04 129.206C178.735 128.934 178.768 128.44 178.719 128.095C178.574 126.957 178.591 125.804 178.768 124.671V124.671Z" fill="url(#paint16_linear)"/>
<path opacity="0.58" d="M172.967 162.442L189.358 165.226L181.748 129.785L175.602 128.856L172.967 162.442Z" fill="url(#paint17_linear)"/>
<path d="M91.8028 142.873C91.8165 142.689 91.884 142.513 91.9969 142.367C92.1225 142.251 92.2781 142.172 92.4462 142.139C92.9321 141.985 93.4556 141.999 93.9327 142.178C94.1718 142.274 94.3733 142.445 94.5064 142.666C94.6396 142.886 94.6972 143.145 94.6704 143.401C94.9545 142.871 95.3009 142.376 95.7021 141.928C95.8796 141.728 96.1181 141.523 96.3732 141.584C96.4888 141.62 96.5923 141.687 96.6728 141.778C96.9626 142.063 97.1795 142.414 97.305 142.801C97.4306 143.188 97.461 143.6 97.3938 144.001C97.4977 143.318 97.8372 142.693 98.3534 142.234C98.4294 142.158 98.5258 142.106 98.6307 142.084C98.8304 142.084 98.9913 142.251 99.0967 142.423C99.5844 143.261 99.7649 144.244 99.607 145.202C99.6247 144.64 99.7688 144.089 100.028 143.59C100.084 143.479 100.167 143.362 100.289 143.357C100.375 143.367 100.454 143.408 100.511 143.473C100.79 143.741 100.99 144.081 101.088 144.456C101.186 144.831 101.178 145.226 101.066 145.596C100.75 146.619 99.6901 147.23 98.6585 147.486C98.1422 147.608 97.6136 147.669 97.0832 147.669C95.9257 147.62 94.7792 147.422 93.672 147.08C93.3162 147.013 92.9782 146.873 92.6792 146.669C91.5088 145.719 91.5976 144.19 91.8028 142.873Z" fill="#BB826C"/>
</g>
<defs>
<linearGradient id="paint0_linear" x1="38.1945" y1="88.6074" x2="66.2385" y2="88.6074" gradientUnits="userSpaceOnUse">
<stop offset="0.01"/>
<stop offset="0.13" stop-opacity="0.69"/>
<stop offset="1" stop-opacity="0"/>
</linearGradient>
<linearGradient id="paint1_linear" x1="7909.78" y1="25994.5" x2="-1157.28" y2="37248.1" gradientUnits="userSpaceOnUse">
<stop offset="0.01"/>
<stop offset="0.13" stop-opacity="0.69"/>
<stop offset="1" stop-opacity="0"/>
</linearGradient>
<linearGradient id="paint2_linear" x1="2486.04" y1="4744.25" x2="2222.85" y2="6988.52" gradientUnits="userSpaceOnUse">
<stop offset="0.01"/>
<stop offset="0.13" stop-opacity="0.69"/>
<stop offset="1" stop-opacity="0"/>
</linearGradient>
<linearGradient id="paint3_linear" x1="4247.97" y1="4947.27" x2="3984.76" y2="7191.62" gradientUnits="userSpaceOnUse">
<stop offset="0.01"/>
<stop offset="0.13" stop-opacity="0.69"/>
<stop offset="1" stop-opacity="0"/>
</linearGradient>
<linearGradient id="paint4_linear" x1="112915" y1="-482769" x2="115465" y2="-532514" gradientUnits="userSpaceOnUse">
<stop offset="0.01"/>
<stop offset="0.13" stop-opacity="0.69"/>
<stop offset="1" stop-opacity="0"/>
</linearGradient>
<linearGradient id="paint5_linear" x1="136552" y1="-438867" x2="130535" y2="-477199" gradientUnits="userSpaceOnUse">
<stop offset="0.01"/>
<stop offset="0.13" stop-opacity="0.69"/>
<stop offset="1" stop-opacity="0"/>
</linearGradient>
<linearGradient id="paint6_linear" x1="14577.7" y1="25615.4" x2="22641.8" y2="27889.2" gradientUnits="userSpaceOnUse">
<stop offset="0.01"/>
<stop offset="0.13" stop-opacity="0.69"/>
<stop offset="1" stop-opacity="0"/>
</linearGradient>
<linearGradient id="paint7_linear" x1="13570.6" y1="26645.8" x2="23200.5" y2="30725" gradientUnits="userSpaceOnUse">
<stop offset="0.01"/>
<stop offset="0.13" stop-opacity="0.69"/>
<stop offset="1" stop-opacity="0"/>
</linearGradient>
<linearGradient id="paint8_linear" x1="3899.39" y1="6684.12" x2="4083.32" y2="6684.12" gradientUnits="userSpaceOnUse">
<stop offset="0.01"/>
<stop offset="0.13" stop-opacity="0.69"/>
<stop offset="1" stop-opacity="0"/>
</linearGradient>
<linearGradient id="paint9_linear" x1="7599.81" y1="4446.53" x2="7313.64" y2="7305.07" gradientUnits="userSpaceOnUse">
<stop offset="0.01"/>
<stop offset="0.13" stop-opacity="0.69"/>
<stop offset="1" stop-opacity="0"/>
</linearGradient>
<linearGradient id="paint10_linear" x1="7562.84" y1="7520.02" x2="6575.47" y2="12041.6" gradientUnits="userSpaceOnUse">
<stop offset="0.01"/>
<stop offset="0.13" stop-opacity="0.69"/>
<stop offset="1" stop-opacity="0"/>
</linearGradient>
<linearGradient id="paint11_linear" x1="10049.6" y1="10875.9" x2="12070.7" y2="10499.7" gradientUnits="userSpaceOnUse">
<stop offset="0.01"/>
<stop offset="0.13" stop-opacity="0.69"/>
<stop offset="1" stop-opacity="0"/>
</linearGradient>
<linearGradient id="paint12_linear" x1="11089.7" y1="1355.98" x2="11088.9" y2="1656.12" gradientUnits="userSpaceOnUse">
<stop offset="0.01"/>
<stop offset="0.13" stop-opacity="0.69"/>
<stop offset="1" stop-opacity="0"/>
</linearGradient>
<linearGradient id="paint13_linear" x1="4491.36" y1="1268.54" x2="4552.79" y2="1118.22" gradientUnits="userSpaceOnUse">
<stop offset="0.01"/>
<stop offset="0.13" stop-opacity="0.69"/>
<stop offset="1" stop-opacity="0"/>
</linearGradient>
<linearGradient id="paint14_linear" x1="3385.07" y1="1348.26" x2="3415.67" y2="1251.6" gradientUnits="userSpaceOnUse">
<stop offset="0.01"/>
<stop offset="0.13" stop-opacity="0.69"/>
<stop offset="1" stop-opacity="0"/>
</linearGradient>
<linearGradient id="paint15_linear" x1="3157.13" y1="1694.5" x2="3239.21" y2="1628.5" gradientUnits="userSpaceOnUse">
<stop offset="0.01"/>
<stop offset="0.13" stop-opacity="0.69"/>
<stop offset="1" stop-opacity="0"/>
</linearGradient>
<linearGradient id="paint16_linear" x1="3509.2" y1="1666.51" x2="3521.96" y2="1532.01" gradientUnits="userSpaceOnUse">
<stop offset="0.01"/>
<stop offset="0.13" stop-opacity="0.69"/>
<stop offset="1" stop-opacity="0"/>
</linearGradient>
<linearGradient id="paint17_linear" x1="4743.43" y1="10643.8" x2="6665.45" y2="10219.9" gradientUnits="userSpaceOnUse">
<stop offset="0.01"/>
<stop offset="0.13" stop-opacity="0.69"/>
<stop offset="1" stop-opacity="0"/>
</linearGradient>
<clipPath id="clip0">
<rect width="284" height="267" fill="white"/>
</clipPath>
</defs>
</svg>
