<svg width="299" height="281" viewBox="0 0 299 281" fill="none" xmlns="http://www.w3.org/2000/svg">
<g clip-path="url(#clip0)">
<path opacity="0.42" d="M269.225 272.766C256.73 279.069 242.164 279.319 228.165 279.437L184.722 279.791C179.792 279.718 174.862 279.996 169.971 280.624C164.646 281.435 161.991 280.801 156.695 279.813C145.698 277.757 134.443 277.602 123.291 277.373L69.139 276.349C50.8548 276.01 31.8331 275.486 15.592 267.09C11.9706 265.218 8.45243 262.888 6.09224 259.564C4.65569 257.402 3.55181 255.036 2.81746 252.546C-1.51965 238.991 -0.892226 224.335 4.58761 211.2C10.2152 197.85 20.5337 186.874 25.2836 173.148C30.4096 158.273 20.8066 140.957 16.3665 126.708C10.5987 108.176 7.22808 88.6124 9.47027 69.3361C11.7125 50.0597 19.9953 31.0561 34.6211 18.2961C56.4898 -0.766497 88.6991 -3.09588 117.014 2.96346C126.779 5.05696 136.464 8.06451 145.041 13.2098C167.22 26.5595 178.851 52.1679 198.389 69.137C221.571 89.2759 254.813 96.3598 274.985 119.506C288.94 135.517 294.626 157.101 297.451 178.124C299.892 196.309 300.401 215.954 292.163 232.85C284.802 247.976 287.391 263.603 269.225 272.766Z" fill="#3703A5"/>
<path opacity="0.18" d="M26.6484 253.35C27.2827 257.684 32.5489 259.394 36.8563 260.109C81.6115 267.54 127.274 266.64 172.627 265.667C190.505 265.277 208.428 264.834 226.174 262.623C238.063 261.149 262.248 259.792 271.047 250.998C264.792 247.217 252.851 249.295 245.645 249.251C227.848 249.148 210.05 249.074 192.253 249.163C157.16 249.335 122.069 249.959 86.981 251.035C66.8701 251.659 46.7593 252.431 26.6484 253.35Z" fill="#3703A5"/>
<path d="M140.011 259.011C139.419 259.419 138.717 259.64 137.997 259.645C132.784 260.292 127.54 260.656 122.287 260.736C121.566 260.781 120.843 260.678 120.163 260.434C119.809 260.334 119.497 260.123 119.273 259.832C119.049 259.54 118.926 259.185 118.921 258.817C118.916 258.45 119.03 258.091 119.246 257.794C119.462 257.496 119.768 257.277 120.119 257.168C120.791 256.906 121.507 256.776 122.228 256.785C127.878 256.534 133.757 256.32 139.399 256.925C139.643 256.926 139.88 257.007 140.075 257.154C140.27 257.301 140.412 257.506 140.481 257.74C140.549 257.975 140.541 258.224 140.456 258.453C140.372 258.682 140.215 258.878 140.011 259.011V259.011Z" fill="#3703A5"/>
<path d="M52.9715 257.699C53.4789 258.367 54.0859 258.954 54.7711 259.438C55.8898 260.033 57.133 260.357 58.3999 260.382C60.8585 260.628 63.3293 260.819 65.8124 260.957C66.2672 261.036 66.7354 260.958 67.14 260.736C67.4096 260.469 67.5662 260.109 67.5772 259.73C67.5882 259.351 67.4528 258.983 67.199 258.701C66.6523 258.166 65.9804 257.776 65.2445 257.566C61.203 255.988 57.5317 253.591 54.4614 250.526C53.2665 249.325 49.1804 244.71 47.9634 248.602C47.0267 251.566 51.253 255.679 52.9715 257.699Z" fill="#3703A5"/>
<path d="M250.454 240.199C251.299 240.91 251.998 241.779 252.511 242.757C252.948 243.918 253.104 245.166 252.969 246.398C252.863 248.304 252.617 250.198 252.231 252.067C252.12 252.642 251.848 253.35 251.258 253.379C251.088 253.368 250.923 253.323 250.772 253.245C250.621 253.168 250.488 253.061 250.38 252.93C249.809 252.363 249.357 251.688 249.05 250.946C248.742 250.203 248.585 249.406 248.588 248.603C248.669 247.988 248.626 247.364 248.462 246.767C248.038 246.021 247.348 245.463 246.53 245.204L240.998 242.661C239.471 241.961 237.812 241.113 237.244 239.543C236.359 237.096 239.316 232.909 241.986 232.909C244.656 232.909 248.602 238.415 250.454 240.199Z" fill="#3E3E54"/>
<path d="M181.27 244.504C180.462 245.348 179.573 246.111 178.615 246.782C177.654 247.458 176.904 248.394 176.454 249.48C176.245 250.027 176.22 250.627 176.383 251.189C176.545 251.752 176.886 252.246 177.354 252.598C178.792 253.482 180.592 252.347 181.883 251.264L190.357 244.194C191.235 243.576 191.942 242.747 192.415 241.784C192.946 240.405 192.474 238.835 191.854 237.516C191.384 236.377 190.686 235.346 189.804 234.486C183.808 229.068 183.527 241.813 181.27 244.504Z" fill="#3E3E54"/>
<path d="M250.454 240.199C251.299 240.91 251.998 241.779 252.511 242.757C252.948 243.918 253.104 245.166 252.969 246.398C252.863 248.304 252.617 250.198 252.231 252.067C252.12 252.642 251.848 253.35 251.258 253.379C251.088 253.368 250.923 253.323 250.772 253.245C250.621 253.168 250.488 253.061 250.38 252.93C249.809 252.363 249.357 251.688 249.05 250.946C248.742 250.203 248.585 249.406 248.588 248.603C248.669 247.988 248.626 247.364 248.462 246.767C248.038 246.021 247.348 245.463 246.53 245.204L240.998 242.661C239.471 241.961 237.812 241.113 237.244 239.543C236.359 237.096 239.316 232.909 241.986 232.909C244.656 232.909 248.602 238.415 250.454 240.199Z" fill="url(#paint0_linear)"/>
<path d="M181.27 244.504C180.462 245.348 179.573 246.111 178.615 246.782C177.654 247.458 176.904 248.394 176.454 249.48C176.245 250.027 176.22 250.627 176.383 251.189C176.545 251.752 176.886 252.246 177.354 252.598C178.792 253.482 180.592 252.347 181.883 251.264L190.357 244.194C191.235 243.576 191.942 242.747 192.415 241.784C192.946 240.405 192.474 238.835 191.854 237.516C191.384 236.377 190.686 235.346 189.804 234.486C183.808 229.068 183.527 241.813 181.27 244.504Z" fill="url(#paint1_linear)"/>
<path d="M89.798 179.259C82.356 200.953 71.89 221.468 61.4535 241.917C60.7159 243.339 59.9267 244.865 58.5032 245.602C57.0797 246.339 54.9629 246.022 54.454 244.511C54.3063 243.891 54.3063 243.245 54.454 242.624C55.9291 233.321 59.0712 224.314 59.9562 214.937C60.2734 211.554 60.3103 208.045 61.6748 204.927C63.4006 200.983 67.0442 198.13 68.7406 194.172C69.8469 191.584 70.0387 188.709 70.378 185.908C70.8393 182.056 71.6113 178.247 72.6865 174.519C79.6207 174.98 86.4435 176.499 92.9178 179.023" fill="url(#paint2_linear)"/>
<path d="M116.033 175.013C120.953 197.408 122.671 220.37 124.375 243.236C124.493 244.828 124.589 246.531 123.807 247.917C123.025 249.303 120.997 250.128 119.78 249.089C119.327 248.641 118.986 248.093 118.784 247.489C115.185 238.791 113.208 229.444 109.093 220.952C107.618 217.893 105.81 214.878 105.353 211.502C104.778 207.241 106.408 202.907 105.796 198.653C105.397 195.86 104.062 193.302 102.897 190.736C101.295 187.202 99.9758 183.547 98.9512 179.804C105.118 176.609 111.736 174.371 118.578 173.17" fill="url(#paint3_linear)"/>
<path d="M114.801 107.874C117.058 112.717 119.337 117.597 122.472 121.931C125.607 126.266 129.685 130.04 134.664 132.023C139.185 133.807 144.407 134.072 148.272 137.021C148.669 137.287 148.986 137.656 149.187 138.09C149.334 138.675 149.263 139.293 148.987 139.829C146.775 145.225 139.141 147.481 134.347 144.149C133.255 143.412 132.326 142.417 131.227 141.672C129.729 140.813 128.165 140.073 126.551 139.461C123.232 137.928 120.385 135.547 117.589 133.195C114.794 130.844 112.036 128.448 110.951 125.086C109.705 121.172 106.349 117.184 106.85 113.108C107.138 110.734 107.699 108.206 107.367 105.84C107.123 104.093 107.632 99.4338 108.717 97.9521C110.206 100.451 113.533 105.198 114.801 107.874Z" fill="url(#paint4_linear)"/>
<path d="M112.25 58.2937C112.437 59.9887 112.292 61.7039 111.822 63.3432C111.332 64.9865 110.249 66.3894 108.783 67.2795C107.924 67.7169 106.985 67.9727 106.023 68.031C105.061 68.0894 104.098 67.949 103.192 67.6186C102.816 67.436 102.388 67.3917 101.983 67.4933C101.704 67.6392 101.482 67.8758 101.356 68.1641C100.493 69.7342 100.485 71.6213 99.8807 73.3241C99.7037 73.8033 100.176 77.9092 99.77 78.2188C99.3644 78.5284 98.2949 74.9606 97.9188 75.0417C96.7682 75.2812 95.5806 75.2812 94.4301 75.0417C94.0232 74.9804 93.6365 74.8238 93.3016 74.5847C93.0213 74.3709 88.9426 77.1942 88.7656 76.8846C86.4865 72.8892 91.0226 64.8248 90.8824 60.2177C90.7865 57.0037 90.344 53.4802 92.1805 50.8412C93.4491 49.0278 95.5659 48.0179 97.6532 47.3029C99.497 46.6226 101.441 46.2539 103.406 46.2119C106.253 46.2119 108.569 47.0523 109.838 49.6249C111.181 52.3369 111.999 55.2781 112.25 58.2937V58.2937Z" fill="url(#paint5_linear)"/>
<path d="M109.262 43.7423C110.236 45.6589 110.243 48.1652 108.849 49.8164C108.258 50.4648 107.547 50.993 106.755 51.3717C105.126 52.2246 103.353 52.7694 101.525 52.9787C101.009 52.9824 100.501 53.1168 100.05 53.3694C99.6664 53.6865 99.3801 54.1056 99.2243 54.5783C98.6863 55.9204 98.3603 57.3379 98.2581 58.7801C97.7639 59.0602 97.1444 58.6621 96.8198 58.1977C96.4953 57.7333 96.2593 57.1583 95.7577 56.8856C94.8874 56.3917 93.7442 57.232 93.5451 58.2125C93.4832 59.2222 93.8225 60.2155 94.4892 60.9767C95.1013 61.8171 95.8684 62.7754 95.5881 63.7779C95.3379 64.3947 94.8923 64.9126 94.3195 65.2522L91.0669 67.7069C90.9331 67.8653 90.7655 67.9918 90.5763 68.0769C90.3872 68.162 90.1813 68.2036 89.974 68.1986C89.7666 68.1937 89.563 68.1423 89.3781 68.0483C89.1933 67.9542 89.0319 67.8199 88.9058 67.6553C87.3901 66.4843 86.0207 65.1355 84.8271 63.6378C82.9709 60.9823 82.0759 57.7737 82.2899 54.5415C82.4393 51.9461 83.1664 49.4167 84.4181 47.1378C85.6698 44.859 87.4147 42.888 89.5254 41.3687C95.3521 37.2554 105.53 36.3192 109.262 43.7423Z" fill="#3E3E54"/>
<path d="M82.9682 31.1958C81.4424 30.988 79.8895 31.2499 78.5165 31.9466C77.1434 32.6432 76.0154 33.7416 75.2828 35.0953C74.6567 36.4491 74.3344 37.9235 74.3388 39.415C74.2947 40.3147 74.3817 41.2161 74.5969 42.0908C75.1199 43.704 76.0767 45.1423 77.3628 46.2483C78.0155 46.8859 78.7616 47.4203 79.5754 47.8332C81.3767 48.5561 83.3568 48.7079 85.2473 48.2681C86.144 48.1388 87.0195 47.8909 87.8509 47.5309C88.7352 47.1075 89.5123 46.4898 90.1241 45.7239C90.7359 44.958 91.1665 44.0637 91.3838 43.1081C91.5065 42.5695 91.5065 42.0102 91.3838 41.4716C91.2623 41.0617 91.0966 40.6663 90.8896 40.2922C89.9013 38.3756 89.5325 36.1347 88.2197 34.395C86.9544 32.6841 85.0696 31.5359 82.9682 31.1958V31.1958Z" fill="#3E3E54"/>
<path d="M79.2361 127.887C75.9983 124.902 76.2122 123 75.7622 118.614C75.3458 114.531 75.7214 110.406 76.8686 106.466C78.6904 100.2 74.9214 94.6716 76.6547 88.3468C77.7168 84.4916 84.1999 64.2053 100.316 76.5525C102.528 78.2406 103.332 81.2113 105.021 83.4153C106.954 85.929 109.513 87.9562 111.15 90.6689C112.241 92.573 112.85 94.714 112.926 96.9066C113.002 99.0991 112.542 101.277 111.586 103.252C110.642 105.22 109.211 106.724 108.377 108.758C107.424 111.335 107.005 114.079 107.145 116.823C107.204 120.538 107.421 124.248 107.795 127.954C108.038 130.357 109.55 133.497 107.972 135.613C106.393 137.728 101.783 138.222 99.438 138.598C93.5375 139.549 86.9879 138.959 82.2233 135.016C80.1065 133.269 78.388 130.482 79.2361 127.873" fill="#3703A5"/>
<path d="M90.086 112.422C89.7319 116.889 90.7571 121.334 90.9563 125.809C91.1554 130.283 90.499 134.964 89.8426 139.505L88.3084 150.09C88.2885 150.321 88.2207 150.544 88.1093 150.746C87.6446 151.484 86.5309 151.027 85.8966 150.444C82.5259 147.223 82.7325 141.923 81.9064 137.33C80.9992 132.296 78.6242 127.652 77.2524 122.72C75.4964 116.579 75.5195 110.066 77.3188 103.938C78.4566 100.509 79.9652 97.2137 81.8179 94.1115C83.5954 90.9713 85.5942 87.8089 88.5813 85.7818C90.676 84.3517 95.9569 76.8329 98.1696 78.9411C100.176 80.8577 97.7787 90.3521 96.9969 92.4456C94.5851 99.0357 90.6539 105.265 90.086 112.422Z" fill="url(#paint6_linear)"/>
<path d="M120.54 177.527C120.64 178.379 120.421 179.239 119.923 179.939C119.426 180.639 118.686 181.13 117.848 181.316C117.479 181.478 117.11 181.625 116.704 181.773C112.117 183.505 105.803 184.434 101.179 184.883C100.443 185.033 99.6773 184.926 99.0102 184.581C98.6055 184.261 98.2799 183.853 98.0588 183.387C97.4983 182.414 97.0041 179.952 96.4878 177.858C96.4843 177.844 96.4843 177.829 96.4878 177.814C96.3919 177.423 96.296 177.077 96.2001 176.701C96.0527 176.092 95.8374 175.501 95.5585 174.939C95.5995 175.201 95.5995 175.467 95.5585 175.728C95.4036 177.822 94.1792 182.716 93.4122 183.262C92.4684 183.853 91.3954 184.207 90.2849 184.294C84.3462 185.181 78.2787 184.167 72.9522 181.397C72.1765 180.982 71.4232 180.527 70.6953 180.033C70.1139 179.7 69.6384 179.209 69.3234 178.618C69.2877 178.513 69.2727 178.403 69.2792 178.293C69.2275 176.819 70.061 171.718 70.1495 171.091C71.6246 160.771 73.0997 150.451 75.5853 140.375C76.0421 138.336 76.6385 136.331 77.3702 134.374C77.4661 134.131 77.562 133.888 77.6652 133.637C78.004 132.647 78.6088 131.77 79.4133 131.101C80.6007 130.254 82.1865 130.313 83.6395 130.408L97.9187 131.315C98.7919 131.356 99.6669 131.333 100.537 131.249C101.903 131.088 103.277 131.007 104.653 131.005C106.482 131.072 107.603 132.266 108.768 133.711C111.202 136.659 112.508 140.419 113.629 144.031C116.616 153.562 120.849 167.531 120.54 177.527Z" fill="white"/>
<path d="M58.7912 135.414C57.6996 137.257 56.431 138.989 55.4869 140.906C53.7349 144.496 53.204 148.559 53.9749 152.479C54.3732 154.476 55.1919 156.518 56.844 157.712C58.4962 158.907 61.1293 158.885 62.3241 157.233C64.0131 154.897 62.1176 150.923 64.3229 149.073C64.3229 149.81 65.5841 150.009 66.0857 149.42C66.5002 148.762 66.638 147.967 66.4692 147.208C66.2406 144.849 66.3881 142.549 66.1594 140.191C68.2172 137.072 70.2971 133.91 71.4772 130.372C72.9524 125.949 72.9524 121.128 75.1208 117.029C76.6918 114.022 79.2511 111.685 81.6113 109.245C87.3995 103.231 92.1365 96.2894 95.625 88.7083C96.9231 85.8777 98.0663 82.8996 98.1991 79.7888C98.3171 77.0245 93.8844 75.2996 91.1111 75.4028C88.3379 75.506 85.7786 77.0319 83.8535 79.0296C82.0097 81.1015 80.4382 83.4003 79.1774 85.8703C75.1405 93.0157 71.1035 100.159 67.0666 107.299C66.2627 108.759 61.6972 130.512 58.7912 135.414Z" fill="url(#paint7_linear)"/>
<path d="M118.659 257.684C118.726 258.074 118.914 258.433 119.197 258.709C119.56 258.93 119.985 259.025 120.407 258.982C126.627 258.982 132.835 258.724 139.03 258.208C139.768 258.149 140.675 257.898 140.742 257.176C140.746 256.918 140.682 256.664 140.557 256.438C139.274 253.755 136.545 252.111 133.919 250.659C131.461 249.278 128.96 247.937 126.418 246.634C125.98 246.348 125.467 246.196 124.943 246.2C124.506 246.284 124.091 246.46 123.726 246.716C122.022 247.666 119.404 247.453 118.482 249.369C117.435 251.654 118.054 255.362 118.659 257.684Z" fill="#3E3E54"/>
<path d="M50.8475 244.747C50.1099 245.528 49.3724 246.406 49.3281 247.467C49.3838 248.349 49.7024 249.193 50.2427 249.892C51.5296 251.892 52.9334 253.815 54.4468 255.649C55.1649 256.647 56.1006 257.469 57.1832 258.053C57.9375 258.359 58.7327 258.552 59.5434 258.628C61.5274 258.886 63.5262 259.055 65.525 259.114C66.1213 259.192 66.7267 259.068 67.2435 258.76C68.0696 258.112 67.8409 256.799 67.3615 255.863C66.7715 254.708 65.9297 253.701 64.898 252.915C64.4165 252.604 63.9733 252.238 63.5778 251.824C63.1451 251.219 62.8414 250.531 62.6854 249.804C62.1383 247.989 61.4756 246.212 60.7013 244.482C60.6502 244.264 60.5203 244.072 60.3364 243.944C60.1526 243.816 59.9279 243.761 59.7056 243.789C57.8322 243.715 56.394 242.985 54.6533 242.477C53.0971 242.034 51.8211 243.693 50.8475 244.747Z" fill="#3E3E54"/>
<path d="M251.988 217.296C251.67 218.475 250.667 219.323 249.723 220.09C248.755 220.984 247.63 221.691 246.404 222.176C245.736 222.283 245.113 222.583 244.612 223.038C244.4 223.346 244.266 223.7 244.221 224.07C243.484 228.22 245.46 232.702 243.889 236.602C243.115 238.268 241.293 239.174 239.545 239.757C235.37 241.165 230.908 241.467 226.497 241.637C215.176 242.069 203.838 241.697 192.57 240.523C191.536 240.471 190.518 240.254 189.553 239.882C187.082 238.776 185.939 235.894 185.592 233.211C185.46 232.186 185.371 231.058 184.663 230.307C182.834 228.368 180.422 230.307 178.534 230.845C175.675 231.546 172.657 231.176 170.052 229.805C167.065 228.198 164.889 224.911 165.14 221.52C165.141 221.206 165.225 220.898 165.383 220.628C165.576 220.405 165.834 220.246 166.12 220.175C166.407 220.104 166.708 220.123 166.984 220.23C167.527 220.462 168.038 220.764 168.503 221.129C171.734 223.282 175.982 222.743 179.817 222.132C186.772 221.011 193.388 219.485 200.469 219.131L216.74 218.313C220.479 218.129 226.033 218.91 228.187 214.959C229.101 213.286 227.67 211.502 228.076 209.637C228.454 207.921 229.034 206.256 229.802 204.676C230.48 203.283 231.115 201.654 232.413 200.732C232.678 200.548 234.95 199.037 236.351 200.644C236.351 200.644 236.351 200.725 236.351 200.806C236.278 201.337 235.658 202.914 235.614 203.755C235.547 204.344 234.957 208.472 236.101 207.654C236.178 207.596 236.243 207.523 236.292 207.44C236.344 207.351 236.388 207.257 236.425 207.16C236.742 206.423 236.956 205.597 237.281 204.838C238.088 202.949 239.513 201.389 241.322 200.415C241.607 200.225 241.948 200.137 242.289 200.165C242.464 200.216 242.623 200.31 242.752 200.439C242.881 200.568 242.975 200.727 243.026 200.902C243.136 201.253 243.156 201.625 243.085 201.985C242.902 202.823 242.655 203.646 242.348 204.447C242.185 204.945 242.066 205.455 241.994 205.973C241.867 206.783 242.031 207.611 242.458 208.31C242.591 208.535 242.744 208.747 242.916 208.944C243.536 209.649 244.287 210.228 245.128 210.647C246.685 211.45 248.41 211.922 249.849 212.91C251.287 213.898 252.467 215.615 251.988 217.296Z" fill="#3E3E54"/>
<path d="M230.916 250.829C229.551 252.48 228.128 253.74 226.763 255.399C226.299 255.952 223.968 256.483 223.312 256.792C222.993 256.968 222.627 257.038 222.266 256.991C221.905 256.945 221.569 256.785 221.305 256.534C221.102 256.256 220.987 255.924 220.974 255.58C220.961 255.236 221.05 254.896 221.232 254.603C221.602 254.022 222.071 253.511 222.618 253.092C224.713 251.234 226.608 248.735 226.439 245.941C226.328 244.15 225.377 242.506 225.185 240.722C224.698 236.395 234.198 229.628 237.458 234.951C240.718 240.273 233.977 247.084 230.916 250.829Z" fill="#3E3E54"/>
<path d="M204.739 248.691C206.246 250.622 208.069 252.284 210.131 253.608C210.525 253.826 210.832 254.172 211.001 254.588C211.057 254.889 211.007 255.199 210.86 255.467C210.714 255.736 210.48 255.946 210.197 256.062C209.634 256.279 209.029 256.365 208.427 256.313C206.952 256.313 205.337 256.247 204.054 255.465C203.515 255.117 203.02 254.706 202.578 254.242C198.517 250.232 194.564 246.106 190.718 241.865C189.745 240.789 188.727 239.602 188.587 238.179C188.38 235.968 190.401 234.073 192.57 233.69C194.738 233.307 196.936 234.081 198.913 235.046C201.966 236.521 201.229 238.216 201.745 240.944C202.171 243.712 203.192 246.355 204.739 248.691V248.691Z" fill="#3E3E54"/>
<path d="M249.502 232.511C249.402 232.642 249.274 232.748 249.126 232.82C248.768 232.914 248.395 232.933 248.029 232.876C247.664 232.819 247.314 232.687 247.002 232.489C239.007 228.405 232.162 222.331 224.137 218.284C222.957 217.687 221.644 217.023 221.187 215.785C221.117 215.603 221.062 215.416 221.025 215.225V215.225C220.575 213.013 223.481 213.308 224.786 214.075C227.265 215.549 229.669 217.126 232.11 218.645L246.124 227.41C247.643 228.353 249.296 229.488 249.672 231.243C249.733 231.454 249.75 231.676 249.721 231.895C249.691 232.113 249.617 232.323 249.502 232.511V232.511Z" fill="#3703A5"/>
<path d="M249.126 232.82C248.768 232.914 248.395 232.933 248.029 232.876C247.664 232.819 247.314 232.687 247.002 232.489C239.007 228.405 232.162 222.331 224.137 218.284C222.957 217.687 221.644 217.023 221.187 215.785C221.117 215.603 221.062 215.416 221.025 215.225C221.866 214.782 223.37 215.085 224.211 215.578C226.682 217.053 229.094 218.63 231.528 220.149L245.541 228.913C247.068 229.864 248.72 230.992 249.096 232.747C249.119 232.769 249.119 232.798 249.126 232.82Z" fill="url(#paint8_linear)"/>
<path d="M223.518 215.136C223.518 215.136 165.25 177.689 148.965 139.829C148.965 139.829 147.534 136.534 142.865 138.304" stroke="#3E3E54" stroke-width="2" stroke-miterlimit="10" stroke-linecap="round"/>
<path d="M133.831 142.866C133.831 142.866 131.338 144.525 130.925 145.771" stroke="#3E3E54" stroke-width="2" stroke-miterlimit="10" stroke-linecap="round"/>
<path d="M252.453 212.151C252.786 212.114 253.121 212.192 253.404 212.372C253.514 212.476 253.601 212.602 253.659 212.741C253.718 212.881 253.746 213.031 253.743 213.183C253.742 213.573 253.663 213.959 253.511 214.318C253.359 214.677 253.137 215.003 252.858 215.276C252.591 215.593 252.215 215.798 251.804 215.851C251.533 215.831 251.269 215.755 251.03 215.628C250.79 215.501 250.579 215.326 250.41 215.114C249.957 214.675 249.529 214.213 249.126 213.728C248.61 213.101 248.123 212.254 249.237 212.121C250.309 212.072 251.382 212.082 252.453 212.151V212.151Z" fill="#3E3E54"/>
<path d="M252.453 212.151C252.786 212.114 253.121 212.192 253.404 212.372C253.514 212.476 253.601 212.602 253.659 212.741C253.718 212.881 253.746 213.031 253.743 213.183C253.742 213.573 253.663 213.959 253.511 214.318C253.359 214.677 253.137 215.003 252.858 215.276C252.591 215.593 252.215 215.798 251.804 215.851C251.533 215.831 251.269 215.755 251.03 215.628C250.79 215.501 250.579 215.326 250.41 215.114C249.957 214.675 249.529 214.213 249.126 213.728C248.61 213.101 248.123 212.254 249.237 212.121C250.309 212.072 251.382 212.082 252.453 212.151V212.151Z" fill="url(#paint9_linear)"/>
<path d="M242.945 208.915C242.354 208.346 241.587 207.995 240.77 207.92C239.941 207.81 239.103 207.786 238.269 207.846C238.129 207.846 237.96 207.846 237.908 207.698C237.875 207.618 237.875 207.528 237.908 207.448C238.289 206.263 238.783 205.118 239.383 204.027C239.988 202.933 240.894 202.035 241.994 201.44C242.067 201.392 242.15 201.36 242.236 201.345C242.322 201.329 242.41 201.332 242.496 201.352C242.768 201.455 242.805 201.823 242.754 202.089C242.616 202.69 242.446 203.283 242.245 203.865C242.061 204.534 241.986 205.229 242.023 205.922C241.896 206.731 242.061 207.559 242.488 208.259C242.62 208.491 242.773 208.711 242.945 208.915V208.915Z" fill="url(#paint10_linear)"/>
<path d="M236.079 207.646C236.156 207.588 236.221 207.516 236.271 207.433V207.639C236.271 207.801 236.212 208.03 236.035 208.096C235.858 208.162 235.821 208.008 235.673 207.978C235.217 207.98 234.779 208.157 234.449 208.472C233.563 209.072 232.61 209.567 231.609 209.946C231.204 207.919 231.904 205.833 232.789 203.968C233.114 203.208 233.557 202.504 234.102 201.882C234.652 201.252 235.429 200.866 236.263 200.806H236.381C236.307 201.336 235.688 202.914 235.644 203.754C235.526 204.337 234.936 208.465 236.079 207.646Z" fill="url(#paint11_linear)"/>
<path d="M238.697 213.588C239.059 213.588 239.353 213.294 239.353 212.932C239.353 212.57 239.059 212.276 238.697 212.276C238.334 212.276 238.041 212.57 238.041 212.932C238.041 213.294 238.334 213.588 238.697 213.588Z" fill="url(#paint12_linear)"/>
<path d="M96.4805 177.851C96.3846 177.461 96.2888 177.114 96.1929 176.738C96.3293 177.098 96.4258 177.471 96.4805 177.851Z" fill="url(#paint13_linear)"/>
<path d="M120.54 177.527C120.641 178.379 120.421 179.239 119.924 179.939C119.426 180.639 118.687 181.13 117.848 181.316C117.479 181.478 117.11 181.625 116.705 181.773L116.616 181.692C116.065 181.005 115.695 180.191 115.539 179.325C112.416 166.917 108.492 154.723 103.79 142.822C102.735 140.131 98.3394 134.33 100.523 131.241C101.889 131.081 103.263 130.999 104.638 130.998C106.467 131.064 107.588 132.259 108.754 133.703C111.188 136.652 112.493 140.411 113.614 144.023C116.616 153.562 120.85 167.531 120.54 177.527Z" fill="url(#paint14_linear)"/>
</g>
<defs>
<linearGradient id="paint0_linear" x1="253.426" y1="250.268" x2="241.802" y2="237.804" gradientUnits="userSpaceOnUse">
<stop stop-opacity="0"/>
<stop offset="0.99"/>
</linearGradient>
<linearGradient id="paint1_linear" x1="5044.73" y1="6901.02" x2="5294.77" y2="6714.36" gradientUnits="userSpaceOnUse">
<stop stop-opacity="0"/>
<stop offset="0.99"/>
</linearGradient>
<linearGradient id="paint2_linear" x1="54.3655" y1="210.249" x2="92.9326" y2="210.249" gradientUnits="userSpaceOnUse">
<stop stop-color="#E5C5D5"/>
<stop offset="0.42" stop-color="#EAD4D1"/>
<stop offset="1" stop-color="#F0E9CB"/>
</linearGradient>
<linearGradient id="paint3_linear" x1="4932" y1="22207.6" x2="5813.89" y2="22207.6" gradientUnits="userSpaceOnUse">
<stop stop-color="#E5C5D5"/>
<stop offset="0.42" stop-color="#EAD4D1"/>
<stop offset="1" stop-color="#F0E9CB"/>
</linearGradient>
<linearGradient id="paint4_linear" x1="8604.75" y1="8073.27" x2="11049.7" y2="8073.27" gradientUnits="userSpaceOnUse">
<stop stop-color="#E5C5D5"/>
<stop offset="0.42" stop-color="#EAD4D1"/>
<stop offset="1" stop-color="#F0E9CB"/>
</linearGradient>
<linearGradient id="paint5_linear" x1="4319.91" y1="2804.28" x2="5113.84" y2="2804.28" gradientUnits="userSpaceOnUse">
<stop stop-color="#E5C5D5"/>
<stop offset="0.42" stop-color="#EAD4D1"/>
<stop offset="1" stop-color="#F0E9CB"/>
</linearGradient>
<linearGradient id="paint6_linear" x1="3445.56" y1="8702.04" x2="7530.23" y2="10182.5" gradientUnits="userSpaceOnUse">
<stop stop-opacity="0"/>
<stop offset="0.99"/>
</linearGradient>
<linearGradient id="paint7_linear" x1="5761.4" y1="13413.5" x2="8456.16" y2="13413.5" gradientUnits="userSpaceOnUse">
<stop stop-color="#E5C5D5"/>
<stop offset="0.42" stop-color="#EAD4D1"/>
<stop offset="1" stop-color="#F0E9CB"/>
</linearGradient>
<linearGradient id="paint8_linear" x1="10197.2" y1="5684.22" x2="11268.1" y2="5684.22" gradientUnits="userSpaceOnUse">
<stop stop-opacity="0"/>
<stop offset="0.99"/>
</linearGradient>
<linearGradient id="paint9_linear" x1="2321.16" y1="1290.42" x2="2291.27" y2="1334.74" gradientUnits="userSpaceOnUse">
<stop stop-opacity="0"/>
<stop offset="0.99"/>
</linearGradient>
<linearGradient id="paint10_linear" x1="2207" y1="2300.68" x2="2147.16" y2="2325.94" gradientUnits="userSpaceOnUse">
<stop stop-opacity="0"/>
<stop offset="0.99"/>
</linearGradient>
<linearGradient id="paint11_linear" x1="2086.23" y1="2650.21" x2="2001.52" y2="2748.95" gradientUnits="userSpaceOnUse">
<stop stop-opacity="0"/>
<stop offset="0.99"/>
</linearGradient>
<linearGradient id="paint12_linear" x1="665.636" y1="586.619" x2="662.999" y2="591.173" gradientUnits="userSpaceOnUse">
<stop stop-opacity="0"/>
<stop offset="0.99"/>
</linearGradient>
<linearGradient id="paint13_linear" x1="149.628" y1="446.327" x2="149.741" y2="446.327" gradientUnits="userSpaceOnUse">
<stop stop-opacity="0"/>
<stop offset="0.99"/>
</linearGradient>
<linearGradient id="paint14_linear" x1="4729" y1="10609.4" x2="2992.41" y2="10859.5" gradientUnits="userSpaceOnUse">
<stop stop-opacity="0"/>
<stop offset="0.99"/>
</linearGradient>
<clipPath id="clip0">
<rect width="299" height="281" fill="white"/>
</clipPath>
</defs>
</svg>
