<svg width="305" height="272" viewBox="0 0 305 272" fill="none" xmlns="http://www.w3.org/2000/svg">
<g clip-path="url(#clip0)">
<path opacity="0.42" d="M46.0773 21.7851C95.456 -10.7719 166.201 -6.40897 211.204 31.979C221.783 40.9997 231.007 51.63 242.342 59.6896C252.184 66.6821 263.49 71.6346 272.465 79.7061C290.936 96.3089 296.403 123.459 293.979 148.169C289.78 190.997 263.979 231.159 226.749 252.779C182.996 278.202 126.948 277.112 80.4531 257.148C68.505 252.019 56.9403 245.657 47.3393 236.896C12.9459 205.548 19.5333 161.228 4.66599 121.632C-9.94768 82.5302 12.2913 44.0361 46.0773 21.7851Z" fill="#3703A5"/>
<path d="M297.581 173.539L214.806 221.732C209.958 224.556 202.032 224.562 197.114 221.732L58.0832 142.137C53.1589 139.319 53.1058 134.744 57.9534 131.92L140.729 83.7565C145.582 80.9324 153.503 80.9265 158.421 83.7565L297.451 163.351C302.376 166.14 302.435 170.715 297.581 173.539Z" fill="#3703A5"/>
<path d="M301.397 168.392L218.627 216.555C213.774 219.38 205.848 219.385 200.935 216.555L61.9047 136.961C56.9804 134.143 56.9215 129.568 61.775 126.744L144.562 78.5744C149.416 75.7503 157.342 75.7444 162.254 78.5744L301.285 158.169C306.191 161.005 306.25 165.568 301.397 168.392Z" fill="#3703A5"/>
<path d="M298.383 170.149L215.614 218.312C210.76 221.136 202.834 221.142 197.921 218.312L58.891 138.718C53.9667 135.9 53.9136 131.325 58.7672 128.5L141.537 80.3371C146.39 77.513 154.316 77.5071 159.229 80.3371L298.259 159.931C303.201 162.773 303.237 167.325 298.383 170.149Z" fill="#3703A5"/>
<path opacity="0.58" d="M298.383 170.143L215.608 218.312C214.99 218.667 214.345 218.973 213.679 219.226C208.855 221.095 202.227 220.788 197.91 218.324L58.8793 138.73C53.9609 135.917 53.902 131.342 58.7496 128.518L96.6756 106.456L141.496 80.3547C146.343 77.5306 154.269 77.5247 159.188 80.3547L298.212 159.949C303.201 162.773 303.237 167.325 298.383 170.143Z" fill="url(#paint0_linear)"/>
<path opacity="0.58" d="M135.327 84.0811L292.657 172.973L264.762 189.246L108.429 99.3514L135.327 84.0811Z" fill="url(#paint1_linear)"/>
<path opacity="0.58" d="M251.605 197.158L213.679 219.226C208.855 221.095 202.227 220.788 197.91 218.324L58.8793 138.73C53.9609 135.917 53.902 131.342 58.7496 128.518L96.6756 106.456C101.494 104.587 108.128 104.893 112.445 107.358L251.476 186.946C256.394 189.764 256.453 194.339 251.605 197.158Z" fill="url(#paint2_linear)"/>
<path d="M162.207 116.455L144.397 126.808C141.708 128.376 137.32 128.376 134.583 126.808L112.763 114.315C110.033 112.752 110.003 110.188 112.692 108.649L130.503 98.2839C133.192 96.7215 137.579 96.7156 140.316 98.2839L162.136 110.777C164.866 112.357 164.896 114.893 162.207 116.455Z" fill="#FDB523"/>
<path d="M150.701 123.035L147.752 124.733L138.665 119.521C137.124 120.109 135.456 120.28 133.829 120.016L133.392 119.934L133.05 119.745C132.29 119.332 125.531 115.677 123.998 114.551C122.37 113.372 123.214 111.603 123.998 110.518L116.75 106.391L119.699 104.693L129.134 110.099L128.35 110.889C127.513 111.768 127.07 112.847 127.3 113.106C128.238 113.796 132.478 116.16 135.397 117.746C136.014 117.693 136.604 117.471 137.102 117.104L138.547 116.09L150.701 123.035Z" fill="#EFA92B"/>
<path d="M156.15 119.857L159.099 118.159L149.994 112.947C151.256 111.851 151.173 110.736 150.813 110.153L150.666 109.899L150.347 109.705C149.622 109.268 143.229 105.401 141.271 104.522C139.19 103.591 136.129 104.092 134.283 104.522L127.035 100.395L124.086 102.093L133.522 107.5L134.896 107.057C136.418 106.568 138.281 106.303 138.735 106.432C139.915 106.969 144.043 109.38 146.833 111.067C146.791 111.273 146.597 111.656 145.736 112.057L143.996 112.9L156.15 119.857Z" fill="#EFA92B"/>
<path d="M153.921 121.284L153.302 121.644L121.668 103.526L122.282 103.166L153.921 121.284Z" fill="#EFA92B"/>
<path d="M144.256 126.909L143.636 127.262L112.003 109.15L112.622 108.791L144.256 126.909Z" fill="#EFA92B"/>
<path d="M163.581 115.66L162.968 116.019L131.329 97.9012L131.948 97.5415L163.581 115.66Z" fill="#EFA92B"/>
<path d="M174.932 132.237C173.687 132.808 172.407 133.068 171.091 133.018C169.786 132.967 168.547 132.609 167.375 131.943C166.104 131.222 165.53 130.384 165.652 129.43C165.779 128.479 166.588 127.57 168.08 126.703L169.091 126.115C170.068 125.547 171.104 125.149 172.2 124.919C173.301 124.693 174.376 124.651 175.425 124.793C176.48 124.933 177.438 125.248 178.3 125.737C179.442 126.386 180.045 127.089 180.109 127.844C180.178 128.596 179.718 129.325 178.729 130.03L177.303 129.22C178.017 128.663 178.355 128.159 178.317 127.705C178.284 127.255 177.898 126.82 177.159 126.4C176.253 125.886 175.214 125.672 174.043 125.758C172.876 125.848 171.689 126.244 170.481 126.946L169.463 127.538C168.322 128.201 167.659 128.866 167.472 129.535C167.286 130.203 167.631 130.787 168.508 131.285C169.296 131.732 170.072 131.974 170.837 132.01C171.612 132.047 172.502 131.852 173.506 131.427L174.932 132.237ZM181.736 135.048L179.209 133.613L174.957 136.085L173.532 135.275L184.043 129.166L187.603 131.188C188.814 131.876 189.476 132.562 189.587 133.244C189.703 133.929 189.246 134.571 188.216 135.17C187.561 135.55 186.809 135.778 185.958 135.854C185.113 135.932 184.247 135.858 183.361 135.632L181.426 139.66L181.34 139.71L179.818 138.846L181.736 135.048ZM180.343 132.955L182.522 134.192C183.226 134.592 183.963 134.806 184.733 134.834C185.508 134.865 186.193 134.707 186.79 134.36C187.44 133.983 187.738 133.58 187.686 133.152C187.639 132.727 187.243 132.3 186.499 131.872L184.328 130.638L180.343 132.955ZM193.799 141.204L189.138 138.556L185.413 140.721L190.827 143.797L189.694 144.456L182.861 140.574L193.372 134.465L200.131 138.304L198.99 138.967L193.65 135.934L190.271 137.897L194.932 140.545L193.799 141.204ZM191.46 145.459L201.97 139.349L205.006 141.074C205.942 141.605 206.567 142.193 206.882 142.836C207.197 143.479 207.175 144.128 206.819 144.783C206.467 145.44 205.809 146.052 204.847 146.617L204.176 147.007C203.184 147.583 202.119 147.976 200.979 148.186C199.844 148.399 198.712 148.414 197.584 148.232C196.46 148.053 195.411 147.692 194.436 147.15L191.46 145.459ZM202.248 140.818L194.011 145.605L195.503 146.453C196.597 147.074 197.778 147.364 199.048 147.322C200.323 147.282 201.574 146.906 202.801 146.193L203.415 145.836C204.608 145.142 205.246 144.44 205.33 143.73C205.423 143.019 204.947 142.362 203.903 141.758L202.248 140.818ZM202.909 151.962L201.491 151.157L212.002 145.047L213.42 145.853L202.909 151.962ZM222.089 152.088L218.632 150.124L209.262 155.571L207.851 154.769L217.221 149.323L213.771 147.364L214.912 146.701L223.229 151.425L222.089 152.088ZM157.731 142.235C156.486 142.806 155.206 143.066 153.89 143.016C152.584 142.965 151.346 142.607 150.174 141.941C148.903 141.22 148.329 140.382 148.451 139.428C148.578 138.477 149.387 137.568 150.879 136.701L151.89 136.113C152.867 135.545 153.903 135.147 154.999 134.917C156.1 134.691 157.175 134.649 158.224 134.792C159.279 134.931 160.237 135.246 161.099 135.736C162.241 136.385 162.844 137.087 162.908 137.842C162.977 138.594 162.517 139.323 161.528 140.028L160.102 139.218C160.816 138.662 161.154 138.157 161.116 137.704C161.083 137.253 160.697 136.818 159.958 136.399C159.052 135.884 158.013 135.67 156.841 135.757C155.675 135.846 154.487 136.242 153.279 136.944L152.262 137.536C151.121 138.199 150.458 138.864 150.271 139.533C150.085 140.202 150.43 140.785 151.307 141.283C152.095 141.73 152.871 141.972 153.636 142.009C154.411 142.045 155.301 141.851 156.305 141.425L157.731 142.235ZM165.02 147.056L160.514 144.497L156.759 145.516L155.297 144.686L169.914 140.909L171.155 141.614L164.759 150.061L163.304 149.234L165.02 147.056ZM162.083 144.077L165.74 146.154L168.824 142.256L162.083 144.077ZM174.403 150.652L171.877 149.217L167.625 151.689L166.199 150.879L176.71 144.77L180.271 146.792C181.482 147.48 182.143 148.165 182.254 148.848C182.37 149.533 181.913 150.175 180.883 150.774C180.229 151.154 179.476 151.382 178.626 151.458C177.78 151.536 176.915 151.462 176.029 151.236L174.094 155.264L174.007 155.314L172.486 154.45L174.403 150.652ZM173.01 148.558L175.19 149.796C175.894 150.196 176.631 150.41 177.401 150.438C178.175 150.469 178.861 150.311 179.458 149.964C180.107 149.587 180.406 149.184 180.354 148.756C180.306 148.331 179.911 147.904 179.167 147.476L176.995 146.242L173.01 148.558ZM175.529 156.178L186.04 150.069L189.076 151.794C190.011 152.325 190.637 152.913 190.951 153.556C191.266 154.199 191.245 154.848 190.888 155.503C190.536 156.16 189.879 156.771 188.916 157.336L188.245 157.727C187.254 158.303 186.188 158.696 185.048 158.906C183.913 159.118 182.781 159.134 181.653 158.952C180.53 158.773 179.481 158.412 178.506 157.869L175.529 156.178ZM186.317 151.538L178.081 156.325L179.573 157.173C180.666 157.794 181.848 158.083 183.117 158.041C184.392 158.002 185.643 157.626 186.87 156.913L187.484 156.556C188.678 155.862 189.316 155.16 189.399 154.45C189.492 153.739 189.016 153.082 187.972 152.478L186.317 151.538Z" fill="#3703A5"/>
<path d="M141.554 167.248L73.6697 128.064C72.1659 127.197 72.3546 125.706 74.0884 124.674C75.8223 123.672 78.4525 123.566 79.9563 124.432L147.841 163.616C149.345 164.483 149.156 165.975 147.416 167C145.682 168.003 143.058 168.115 141.554 167.248Z" fill="#3703A5"/>
<path d="M243.231 170.438L160.485 218.595C155.631 221.42 147.705 221.425 142.793 218.595L3.7565 139.001C-1.1619 136.183 -1.22087 131.608 3.63266 128.784L86.4022 80.6203C91.2557 77.7962 99.1818 77.7903 104.094 80.6203L243.125 160.215C248.025 163.033 248.084 167.608 243.231 170.438Z" fill="#3703A5"/>
<path d="M244.033 167.041L161.264 215.205C156.41 218.029 148.484 218.029 143.571 215.205L4.54098 135.611C-0.383319 132.792 -0.442292 128.217 4.41124 125.393L87.1749 77.2238C92.0284 74.3997 99.9545 74.3938 104.867 77.2238L243.897 156.818C248.834 159.642 248.887 164.217 244.033 167.041Z" fill="#3703A5"/>
<path opacity="0.58" d="M244.039 167.036L161.263 215.199C160.646 215.557 160.001 215.865 159.335 216.119C154.511 217.988 147.876 217.681 143.559 215.217L4.52897 135.623C-0.389439 132.805 -0.448412 128.235 4.40512 125.411L42.3252 103.349L87.1747 77.2477C92.0282 74.4236 99.9484 74.4177 104.867 77.2477L243.897 156.842C248.827 159.643 248.886 164.212 244.039 167.036Z" fill="url(#paint3_linear)"/>
<path opacity="0.58" d="M197.255 194.051L159.335 216.119C154.511 217.988 147.876 217.681 143.559 215.217L4.52897 135.623C-0.389439 132.804 -0.448412 128.235 4.40512 125.411L42.3252 103.349C47.1492 101.48 53.7779 101.786 58.0947 104.251L197.125 183.845C202.044 186.657 202.103 191.233 197.255 194.051Z" fill="url(#paint4_linear)"/>
<path d="M107.857 113.348L90.0528 123.713C87.3636 125.275 82.976 125.281 80.2337 123.713L58.4134 111.22C55.6829 109.651 55.6476 107.093 58.3427 105.554L76.1527 95.1948C78.8478 93.6265 83.2295 93.6265 85.9718 95.1948L107.792 107.688C110.517 109.245 110.552 111.786 107.857 113.348Z" fill="#FDB523"/>
<path d="M96.3509 119.922L93.4317 121.626L84.3321 116.414C82.791 116.999 81.1238 117.169 79.4962 116.909L79.0539 116.821L78.7178 116.638C77.9511 116.225 71.1986 112.57 69.6653 111.444C68.0376 110.265 68.8751 108.496 69.6653 107.411L62.4233 103.284L65.3425 101.586L74.7783 106.987L74.0176 107.782C73.186 108.667 72.7437 109.746 72.9678 110.005C73.9055 110.695 78.1457 113.059 81.0649 114.645C81.6827 114.59 82.2738 114.368 82.7752 114.003L84.22 112.989L96.3509 119.922Z" fill="#EFA92B"/>
<path d="M101.806 116.75L104.726 115.052L95.6142 109.84C96.8703 108.737 96.7937 107.629 96.4339 107.045L96.2806 106.792L95.9621 106.597C95.2427 106.161 88.8499 102.293 86.8861 101.415C84.8043 100.483 81.7495 100.984 79.8977 101.415L72.6499 97.2876L69.7012 98.9856L79.137 104.392L80.5052 103.944C82.0267 103.461 83.8902 103.195 84.3502 103.325C85.5297 103.861 89.6579 106.273 92.4473 107.959C92.406 108.165 92.2114 108.549 91.3445 108.95L89.5753 109.793L101.806 116.75Z" fill="#EFA92B"/>
<path d="M99.5711 118.177L98.9577 118.53L67.3184 100.418L67.9376 100.059L99.5711 118.177Z" fill="#EFA92B"/>
<path d="M89.9055 123.796L89.2922 124.155L57.6528 106.043L58.2721 105.684L89.9055 123.796Z" fill="#EFA92B"/>
<path d="M109.237 112.552L108.618 112.912L76.9844 94.7937L77.6036 94.4341L109.237 112.552Z" fill="#EFA92B"/>
<path d="M120.582 129.124C119.337 129.695 118.057 129.955 116.741 129.905C115.435 129.854 114.197 129.496 113.025 128.831C111.754 128.109 111.18 127.271 111.302 126.317C111.429 125.366 112.238 124.457 113.73 123.59L114.741 123.002C115.718 122.434 116.754 122.036 117.85 121.806C118.951 121.58 120.026 121.538 121.075 121.681C122.13 121.82 123.088 122.135 123.95 122.625C125.092 123.274 125.695 123.976 125.759 124.731C125.828 125.484 125.368 126.212 124.379 126.917L122.953 126.107C123.667 125.551 124.005 125.046 123.967 124.593C123.934 124.142 123.548 123.707 122.809 123.288C121.903 122.773 120.864 122.559 119.692 122.646C118.526 122.735 117.338 123.131 116.13 123.833L115.113 124.425C113.972 125.088 113.309 125.754 113.122 126.422C112.936 127.091 113.281 127.674 114.158 128.172C114.946 128.619 115.722 128.861 116.487 128.898C117.262 128.934 118.152 128.74 119.156 128.314L120.582 129.124ZM127.386 131.936L124.859 130.501L120.607 132.972L119.182 132.162L129.692 126.053L133.253 128.075C134.464 128.763 135.126 129.449 135.237 130.131C135.353 130.817 134.896 131.459 133.866 132.057C133.211 132.438 132.459 132.666 131.608 132.741C130.763 132.82 129.897 132.745 129.011 132.519L127.076 136.547L126.99 136.597L125.468 135.733L127.386 131.936ZM125.993 129.842L128.172 131.08C128.876 131.48 129.613 131.694 130.383 131.722C131.158 131.752 131.843 131.594 132.44 131.247C133.09 130.87 133.388 130.467 133.336 130.039C133.289 129.614 132.893 129.187 132.149 128.759L129.978 127.526L125.993 129.842ZM139.449 138.091L134.788 135.443L131.063 137.609L136.477 140.684L135.344 141.343L128.511 137.462L139.022 131.352L145.781 135.192L144.64 135.855L139.3 132.821L135.921 134.785L140.582 137.432L139.449 138.091ZM137.109 142.346L147.62 136.236L150.656 137.961C151.592 138.492 152.217 139.08 152.532 139.723C152.846 140.367 152.825 141.016 152.468 141.67C152.116 142.328 151.459 142.939 150.497 143.504L149.825 143.894C148.834 144.47 147.768 144.863 146.629 145.073C145.494 145.286 144.362 145.301 143.234 145.119C142.11 144.94 141.061 144.579 140.086 144.037L137.109 142.346ZM147.898 137.705L139.661 142.493L141.153 143.34C142.246 143.961 143.428 144.251 144.698 144.209C145.973 144.17 147.224 143.793 148.451 143.08L149.064 142.723C150.258 142.03 150.896 141.328 150.98 140.617C151.072 139.907 150.597 139.249 149.553 138.645L147.898 137.705ZM148.559 148.85L147.141 148.044L157.651 141.935L159.07 142.74L148.559 148.85ZM167.739 148.975L164.282 147.012L154.912 152.458L153.501 151.657L162.871 146.21L159.421 144.251L160.562 143.588L168.879 148.312L167.739 148.975ZM103.38 139.122C102.136 139.693 100.856 139.953 99.5401 139.903C98.2343 139.852 96.9954 139.494 95.8234 138.829C94.5529 138.107 93.9787 137.269 94.1008 136.315C94.2278 135.364 95.0373 134.455 96.5292 133.588L97.5398 133C98.5168 132.433 99.5531 132.034 100.649 131.805C101.749 131.578 102.825 131.536 103.874 131.679C104.929 131.819 105.887 132.133 106.748 132.623C107.891 133.272 108.494 133.974 108.558 134.729C108.627 135.482 108.166 136.21 107.178 136.915L105.752 136.105C106.466 135.549 106.804 135.044 106.766 134.591C106.733 134.14 106.347 133.705 105.608 133.286C104.702 132.771 103.663 132.557 102.491 132.644C101.325 132.733 100.137 133.129 98.9294 133.831L97.9115 134.423C96.7709 135.086 96.1075 135.752 95.9213 136.42C95.735 137.089 96.0802 137.672 96.9568 138.17C97.7447 138.617 98.5212 138.859 99.2863 138.896C100.061 138.932 100.951 138.738 101.955 138.313L103.38 139.122ZM110.67 143.944L106.164 141.384L102.409 142.404L100.946 141.573L115.564 137.796L116.805 138.501L110.409 146.948L108.954 146.121L110.67 143.944ZM107.733 140.964L111.39 143.041L114.474 139.143L107.733 140.964ZM120.053 147.539L117.527 146.104L113.275 148.576L111.849 147.766L122.36 141.657L125.921 143.679C127.132 144.367 127.793 145.053 127.904 145.735C128.02 146.421 127.563 147.063 126.533 147.661C125.879 148.042 125.126 148.27 124.276 148.345C123.43 148.423 122.565 148.349 121.679 148.123L119.744 152.151L119.657 152.201L118.136 151.337L120.053 147.539ZM118.66 145.446L120.839 146.684C121.544 147.084 122.281 147.298 123.05 147.325C123.825 147.356 124.511 147.198 125.108 146.851C125.757 146.474 126.056 146.071 126.004 145.643C125.956 145.218 125.561 144.791 124.817 144.363L122.645 143.13L118.66 145.446ZM121.179 153.066L131.69 146.956L134.726 148.681C135.661 149.212 136.286 149.8 136.601 150.443C136.916 151.086 136.895 151.735 136.538 152.39C136.186 153.047 135.529 153.659 134.566 154.224L133.895 154.614C132.904 155.19 131.838 155.583 130.698 155.793C129.563 156.006 128.431 156.021 127.303 155.839C126.18 155.66 125.131 155.299 124.156 154.757L121.179 153.066ZM131.967 148.425L123.731 153.212L125.223 154.06C126.316 154.681 127.497 154.971 128.767 154.929C130.042 154.889 131.293 154.513 132.52 153.8L133.134 153.443C134.327 152.749 134.966 152.047 135.049 151.337C135.142 150.626 134.666 149.969 133.622 149.365L131.967 148.425Z" fill="#3703A5"/>
<path d="M166.524 197.382L30.1829 118.684C28.6791 117.817 28.8678 116.325 30.6016 115.299C32.3355 114.297 34.9657 114.191 36.4695 115.058L172.811 193.756C174.315 194.622 174.126 196.114 172.386 197.14C170.652 198.148 168.028 198.248 166.524 197.382Z" fill="#3703A5"/>
<path d="M87.2042 164.141L19.3196 124.957C17.8158 124.085 18.0045 122.569 19.7383 121.567C21.4781 120.565 24.1024 120.459 25.6062 121.325L93.4908 160.509C94.9946 161.376 94.8059 162.868 93.0721 163.893C91.3324 164.896 88.708 165.008 87.2042 164.141Z" fill="#3703A5"/>
<path d="M156.298 204.044L107.132 175.673C105.628 174.8 105.816 173.285 107.556 172.283C109.29 171.281 111.92 171.174 113.424 172.041L162.585 200.418C164.088 201.285 163.9 202.776 162.16 203.802C160.426 204.775 157.796 204.887 156.298 204.044Z" fill="#3703A5"/>
</g>
<defs>
<linearGradient id="paint0_linear" x1="92.6132" y1="198.112" x2="209.643" y2="-7.39822" gradientUnits="userSpaceOnUse">
<stop offset="0.01"/>
<stop offset="0.13" stop-opacity="0.69"/>
<stop offset="1" stop-opacity="0"/>
</linearGradient>
<linearGradient id="paint1_linear" x1="77340.4" y1="15146.8" x2="49516.3" y2="69155.1" gradientUnits="userSpaceOnUse">
<stop offset="0.01"/>
<stop offset="0.13" stop-opacity="0.69"/>
<stop offset="1" stop-opacity="0"/>
</linearGradient>
<linearGradient id="paint2_linear" x1="362644" y1="-106866" x2="421939" y2="-138970" gradientUnits="userSpaceOnUse">
<stop offset="0.01"/>
<stop offset="0.13" stop-opacity="0.69"/>
<stop offset="1" stop-opacity="0"/>
</linearGradient>
<linearGradient id="paint3_linear" x1="451381" y1="-141843" x2="533650" y2="-183387" gradientUnits="userSpaceOnUse">
<stop offset="0.01"/>
<stop offset="0.13" stop-opacity="0.69"/>
<stop offset="1" stop-opacity="0"/>
</linearGradient>
<linearGradient id="paint4_linear" x1="351403" y1="-112041" x2="410697" y2="-144147" gradientUnits="userSpaceOnUse">
<stop offset="0.01"/>
<stop offset="0.13" stop-opacity="0.69"/>
<stop offset="1" stop-opacity="0"/>
</linearGradient>
<clipPath id="clip0">
<rect width="305" height="272" fill="white"/>
</clipPath>
</defs>
</svg>
