<svg width="101" height="22" viewBox="0 0 101 22" fill="none" xmlns="http://www.w3.org/2000/svg">
<path d="M4.63248 0.370254C6.3973 0.370254 7.77325 0.811458 8.76035 1.69387C9.76241 2.57627 10.2634 3.81015 10.2634 5.39549C10.2634 6.30781 10.0765 7.1603 9.70259 7.95298C9.34364 8.74565 8.75288 9.38876 7.9303 9.88231C7.12267 10.3759 6.09818 10.6226 4.85682 10.6226H2.45638V16.5901H0.280273V0.370254H4.63248ZM4.85682 8.51383C5.63454 8.51383 6.26269 8.34931 6.74129 8.02028C7.23484 7.69124 7.5863 7.29491 7.79569 6.83127C8.00507 6.35268 8.10977 5.88904 8.10977 5.44036C8.10977 4.66264 7.85551 3.97466 7.34701 3.37642C6.8385 2.76322 6.04583 2.45662 4.969 2.45662H2.45638V8.51383H4.85682Z" fill="white"/>
<path d="M17.4586 15.0197C18.2364 15.0197 18.9916 14.7505 19.7245 14.2121L20.6892 15.76C20.1956 16.0891 19.6572 16.3508 19.0739 16.5452C18.5056 16.7247 17.9522 16.8144 17.4138 16.8144C16.3818 16.8144 15.477 16.6051 14.6993 16.1863C13.9365 15.7526 13.3457 15.1618 12.927 14.414C12.5082 13.6662 12.2988 12.8212 12.2988 11.8789C12.2988 10.9666 12.5231 10.1366 12.9718 9.38876C13.4355 8.626 14.0636 8.02776 14.8563 7.59403C15.649 7.14535 16.5164 6.92101 17.4586 6.92101C18.6701 6.92101 19.6796 7.27995 20.4872 7.99784C21.3098 8.70078 21.8707 9.68788 22.1698 10.9591L14.8114 13.5391C15.0806 14.0027 15.4396 14.3691 15.8883 14.6383C16.3519 14.8926 16.8754 15.0197 17.4586 15.0197ZM17.3016 8.58113C16.4491 8.58113 15.7462 8.88025 15.1928 9.47849C14.6394 10.0767 14.3627 10.8395 14.3627 11.7668C14.3627 11.9911 14.3702 12.1631 14.3852 12.2828L19.7918 10.2861C19.5675 9.77761 19.2459 9.36632 18.8271 9.05225C18.4233 8.73817 17.9148 8.58113 17.3016 8.58113Z" fill="white"/>
<path d="M27.7678 3.21938V7.32482H30.3029V8.98494H27.7678V16.5901H25.659V8.98494H23.954V7.32482H25.659V3.21938H27.7678Z" fill="white"/>
<path d="M41.7521 3.26425C41.1688 2.95017 40.5482 2.69592 39.8901 2.50149C39.232 2.30706 38.6114 2.20985 38.0281 2.20985C37.1457 2.20985 36.4427 2.41176 35.9193 2.81557C35.4108 3.20443 35.1565 3.74285 35.1565 4.43082C35.1565 5.10385 35.4556 5.65722 36.0539 6.09095C36.6671 6.50972 37.5345 6.92848 38.6562 7.34725C39.4938 7.64638 40.1967 7.97541 40.765 8.33435C41.3483 8.67834 41.8269 9.16442 42.2008 9.79257C42.5897 10.4058 42.7841 11.191 42.7841 12.1481C42.7841 13.0156 42.5672 13.8008 42.1335 14.5037C41.6998 15.2067 41.0791 15.76 40.2715 16.1639C39.4788 16.5677 38.5441 16.7696 37.4672 16.7696C36.4652 16.7696 35.5005 16.6125 34.5732 16.2985C33.6459 15.9694 32.8308 15.5581 32.1279 15.0646L33.0926 13.3372C33.6459 13.7559 34.3115 14.1149 35.0892 14.414C35.8669 14.6982 36.5923 14.8402 37.2653 14.8402C38.1328 14.8402 38.888 14.6159 39.5312 14.1672C40.1892 13.7185 40.5183 13.053 40.5183 12.1706C40.5183 11.4228 40.2416 10.832 39.6882 10.3983C39.1498 9.94961 38.387 9.53084 37.3999 9.14198C36.4876 8.79799 35.7248 8.46148 35.1116 8.13245C34.5134 7.80341 33.9974 7.35473 33.5637 6.7864C33.13 6.20312 32.9131 5.47775 32.9131 4.6103C32.9131 3.33903 33.3543 2.31454 34.2367 1.53683C35.1341 0.744156 36.2932 0.325386 37.714 0.280518C39.4639 0.280518 41.0866 0.714243 42.5822 1.5817L41.7521 3.26425Z" fill="white"/>
<path d="M50.2553 15.0197C51.0331 15.0197 51.7883 14.7505 52.5212 14.2121L53.4859 15.76C52.9923 16.0891 52.4539 16.3508 51.8706 16.5452C51.3023 16.7247 50.7489 16.8144 50.2105 16.8144C49.1785 16.8144 48.2737 16.6051 47.496 16.1863C46.7332 15.7526 46.1424 15.1618 45.7237 14.414C45.3049 13.6662 45.0955 12.8212 45.0955 11.8789C45.0955 10.9666 45.3199 10.1366 45.7685 9.38876C46.2322 8.626 46.8603 8.02776 47.653 7.59403C48.4457 7.14535 49.3131 6.92101 50.2553 6.92101C51.4668 6.92101 52.4763 7.27995 53.2839 7.99784C54.1065 8.70078 54.6674 9.68788 54.9665 10.9591L47.6081 13.5391C47.8773 14.0027 48.2363 14.3691 48.685 14.6383C49.1486 14.8926 49.6721 15.0197 50.2553 15.0197ZM50.0983 8.58113C49.2458 8.58113 48.5429 8.88025 47.9895 9.47849C47.4361 10.0767 47.1594 10.8395 47.1594 11.7668C47.1594 11.9911 47.1669 12.1631 47.1819 12.2828L52.5885 10.2861C52.3642 9.77761 52.0426 9.36632 51.6238 9.05225C51.22 8.73817 50.7115 8.58113 50.0983 8.58113Z" fill="white"/>
<path d="M67.362 7.30239V16.6574C67.362 17.5099 67.1452 18.2801 66.7114 18.9681C66.2777 19.6561 65.6571 20.202 64.8494 20.6058C64.0568 21.0096 63.122 21.2115 62.0452 21.2115C61.1029 21.2115 60.2878 21.0545 59.5998 20.7404C58.9268 20.4263 58.2463 19.9627 57.5583 19.3495L58.7922 17.9137C59.3007 18.3923 59.8092 18.7512 60.3177 18.9905C60.8262 19.2448 61.3871 19.3719 62.0003 19.3719C63.0323 19.3719 63.8249 19.1251 64.3783 18.6316C64.9466 18.138 65.2383 17.4725 65.2532 16.635L65.2757 14.8851C64.9317 15.4684 64.4232 15.9395 63.7502 16.2985C63.0921 16.6424 62.3293 16.8144 61.4619 16.8144C60.6094 16.8144 59.8242 16.5976 59.1063 16.1639C58.3884 15.7301 57.8126 15.1394 57.3789 14.3916C56.9601 13.6438 56.7507 12.8137 56.7507 11.9014C56.7507 10.9591 56.9676 10.1141 57.4013 9.36632C57.85 8.60356 58.4482 8.00532 59.196 7.5716C59.9438 7.13787 60.744 6.92101 61.5965 6.92101C62.3892 6.92101 63.122 7.07805 63.795 7.39212C64.468 7.7062 64.9691 8.11001 65.2981 8.60356L65.4551 7.30239H67.362ZM62.0676 15.087C62.8603 15.087 63.5482 14.8702 64.1315 14.4364C64.7148 14.0027 65.0962 13.4344 65.2757 12.7314V10.8918C65.0663 10.2188 64.67 9.6804 64.0867 9.27659C63.5034 8.85782 62.8304 8.64843 62.0676 8.64843C61.1553 8.64843 60.3925 8.94755 59.7793 9.54579C59.1661 10.144 58.8595 10.9068 58.8595 11.8341C58.8595 12.4323 59.0016 12.9782 59.2858 13.4718C59.5699 13.9653 59.9588 14.3616 60.4523 14.6608C60.9459 14.9449 61.4843 15.087 62.0676 15.087Z" fill="white"/>
<path d="M79.6252 7.30239V16.5901H77.7408L77.6062 14.8178C77.2921 15.446 76.806 15.9619 76.148 16.3658C75.4899 16.7546 74.7571 16.949 73.9494 16.949C73.0969 16.949 72.394 16.6948 71.8406 16.1863C71.3022 15.6628 71.018 14.9898 70.9881 14.1672V7.30239H73.0745V13.4269C73.1044 13.9504 73.254 14.3691 73.5232 14.6832C73.8073 14.9823 74.2261 15.1394 74.7795 15.1543C75.288 15.1543 75.7516 15.0048 76.1704 14.7056C76.5892 14.3916 76.9182 13.9653 77.1575 13.4269C77.4118 12.8885 77.5389 12.2902 77.5389 11.6322V7.30239H79.6252Z" fill="white"/>
<path d="M85.2758 9.50093C85.5151 8.99242 85.8516 8.54374 86.2854 8.15488C86.734 7.76602 87.2052 7.4669 87.6987 7.25752C88.1923 7.04813 88.626 6.93596 88.9999 6.92101L88.9102 9.00738C88.2371 8.97747 87.6239 9.11207 87.0706 9.41119C86.5321 9.71031 86.1059 10.1291 85.7918 10.6675C85.4927 11.191 85.3431 11.7518 85.3431 12.3501V16.5901H83.2568V7.30239H85.1188L85.2758 9.50093Z" fill="white"/>
<path d="M90.4895 11.8565C90.4895 10.9442 90.7063 10.1141 91.1401 9.36632C91.5888 8.60356 92.2019 8.00532 92.9797 7.5716C93.7723 7.13787 94.6622 6.92101 95.6493 6.92101C96.6364 6.92101 97.5114 7.13787 98.2741 7.5716C99.0518 8.00532 99.6501 8.59609 100.069 9.34389C100.503 10.0917 100.719 10.9292 100.719 11.8565C100.719 12.7838 100.503 13.6288 100.069 14.3916C99.6501 15.1394 99.0518 15.7301 98.2741 16.1639C97.4964 16.5976 96.6065 16.8144 95.6044 16.8144C94.6323 16.8144 93.7574 16.6125 92.9797 16.2087C92.2019 15.7899 91.5888 15.2067 91.1401 14.4589C90.7063 13.7111 90.4895 12.8436 90.4895 11.8565ZM92.5983 11.8789C92.5983 12.4622 92.7254 13.0006 92.9797 13.4942C93.2489 13.9877 93.6078 14.3766 94.0565 14.6608C94.5201 14.9449 95.0286 15.087 95.582 15.087C96.4495 15.087 97.1674 14.7804 97.7357 14.1672C98.304 13.554 98.5882 12.7913 98.5882 11.8789C98.5882 10.9666 98.304 10.2039 97.7357 9.59066C97.1674 8.96251 96.4495 8.64843 95.582 8.64843C95.0137 8.64843 94.5052 8.79799 94.0565 9.09711C93.6078 9.38128 93.2489 9.77014 92.9797 10.2637C92.7254 10.7572 92.5983 11.2957 92.5983 11.8789Z" fill="white"/>
<path fill-rule="evenodd" clip-rule="evenodd" d="M2.73696 16.8704H0V0.0897365H4.63264C6.44261 0.0897365 7.89308 0.542636 8.9466 1.48399C10.02 2.42962 10.544 3.74644 10.544 5.3954C10.544 6.34659 10.349 7.23948 9.9573 8.07054C9.57249 8.9192 8.94075 9.60283 8.07569 10.1221C7.21249 10.6493 6.13373 10.903 4.85698 10.903H2.73696V16.8704ZM2.45653 10.6225H4.85698C6.09833 10.6225 7.12282 10.3758 7.93045 9.88221C8.75303 9.38867 9.34379 8.74556 9.70274 7.95288C10.0766 7.16021 10.2636 6.30772 10.2636 5.3954C10.2636 3.81006 9.76256 2.57618 8.76051 1.69377C7.77341 0.811366 6.39745 0.370163 4.63264 0.370163H0.280426V16.59H2.45653V10.6225ZM6.58589 7.78686C7.04254 7.48242 7.35515 7.12487 7.5396 6.71723C7.73554 6.26888 7.82949 5.84396 7.82949 5.44027C7.82949 4.72979 7.59936 4.10602 7.13349 3.55795L7.13129 3.55535C6.69316 3.02702 5.99365 2.73696 4.96915 2.73696H2.73696V8.23331H4.85698C5.59685 8.23331 6.16418 8.07674 6.58257 7.7891L6.58589 7.78686ZM2.45653 8.51374V2.45653H4.96915C6.04599 2.45653 6.83866 2.76313 7.34716 3.37633C7.85567 3.97457 8.10992 4.66255 8.10992 5.44027C8.10992 5.88895 8.00523 6.35259 7.79584 6.83118C7.58646 7.29482 7.23499 7.69115 6.74144 8.02019C6.26285 8.34922 5.63469 8.51374 4.85698 8.51374H2.45653ZM19.8025 13.8068L21.0711 15.8424L20.8449 15.9933C20.3298 16.3366 19.7688 16.6092 19.1627 16.8112L19.1585 16.8126C18.5658 16.9998 17.9839 17.0948 17.4139 17.0948C16.3434 17.0948 15.3914 16.8773 14.5665 16.4331L14.5608 16.43C13.7547 15.9717 13.1268 15.3444 12.6824 14.5509C12.2379 13.7572 12.0185 12.8642 12.0185 11.8788C12.0185 10.9182 12.2555 10.0378 12.7315 9.24439L12.7323 9.243C13.2216 8.43819 13.8856 7.8059 14.7201 7.34891C15.5559 6.87619 16.4706 6.64049 17.4588 6.64049C18.729 6.64049 19.8067 7.01844 20.6716 7.78633C21.5472 8.53535 22.1333 9.57885 22.4429 10.8948L22.5007 11.1403L15.2431 13.6848C15.4584 13.9732 15.7198 14.2093 16.028 14.395C16.445 14.6226 16.9197 14.7392 17.4588 14.7392C18.1671 14.7392 18.8655 14.4952 19.5586 13.986L19.8025 13.8068ZM15.8884 14.6382C15.5211 14.4179 15.214 14.1323 14.9669 13.7817C14.9122 13.704 14.8604 13.6231 14.8116 13.539L22.17 10.9591C21.8708 9.68779 21.31 8.70069 20.4874 7.99775C19.6798 7.27986 18.6702 6.92092 17.4588 6.92092C16.5166 6.92092 15.6491 7.14526 14.8564 7.59394C14.0638 8.02766 13.4356 8.62591 12.972 9.38867C12.5233 10.1365 12.299 10.9665 12.299 11.8788C12.299 12.8211 12.5083 13.6661 12.9271 14.4139C13.3459 15.1617 13.9366 15.7525 14.6994 16.1862C15.4771 16.605 16.382 16.8143 17.4139 16.8143C17.9523 16.8143 18.5057 16.7246 19.0741 16.5451C19.6573 16.3507 20.1958 16.089 20.6893 15.7599L19.7246 14.212C19.648 14.2683 19.5711 14.3217 19.494 14.3721C18.8336 14.8038 18.1552 15.0196 17.4588 15.0196C16.8755 15.0196 16.352 14.8925 15.8884 14.6382ZM18.6551 9.27351C18.3098 9.0049 17.8654 8.86146 17.3018 8.86146C16.5234 8.86146 15.8964 9.13088 15.3988 9.66882C14.9 10.208 14.6433 10.8995 14.6433 11.7667C14.6433 11.8095 14.6436 11.85 14.6442 11.8881L19.4019 10.1311C19.2093 9.78717 18.9616 9.50344 18.659 9.27649L18.6551 9.27351ZM19.6679 10.0329C19.7121 10.1144 19.7535 10.1988 19.7919 10.286L14.3853 12.2827C14.3758 12.2066 14.3693 12.1093 14.3659 11.9909C14.3639 11.9231 14.3629 11.8484 14.3629 11.7667C14.3629 10.8394 14.6396 10.0766 15.193 9.4784C15.7463 8.88016 16.4493 8.58104 17.3018 8.58104C17.915 8.58104 18.4235 8.73808 18.8273 9.05215C19.1742 9.31235 19.4544 9.63926 19.6679 10.0329ZM28.0484 2.93887V7.0443H30.5834V9.26528H28.0484V16.8704H25.3787V9.26528H23.6737V7.0443H25.3787V2.93887H28.0484ZM25.6592 7.32473H23.9542V8.98485H25.6592V16.59H27.768V8.98485H30.303V7.32473H27.768V3.21929H25.6592V7.32473ZM41.8752 3.64884L41.6193 3.51107C41.0537 3.20648 40.451 2.95948 39.8108 2.77033C39.1741 2.58222 38.5804 2.49018 38.0282 2.49018C37.1871 2.49018 36.5509 2.68249 36.0907 3.03751L36.0898 3.03824C35.6564 3.36961 35.4371 3.82254 35.4371 4.43073C35.4371 5.00298 35.6839 5.47494 36.2154 5.86149C36.8016 6.26123 37.6438 6.66971 38.7526 7.08376C39.6012 7.38694 40.3222 7.72327 40.9114 8.09492C41.5356 8.46395 42.045 8.9833 42.4399 9.64568C42.8635 10.3154 43.0647 11.1559 43.0647 12.1481C43.0647 13.0648 42.8348 13.9014 42.3723 14.6509C41.9088 15.4021 41.2472 15.9894 40.3978 16.4142C39.5585 16.8415 38.5787 17.0499 37.4674 17.0499C36.4355 17.0499 35.4404 16.8881 34.4834 16.564L34.4796 16.5627C33.5318 16.2264 32.6934 15.8041 31.9669 15.294L31.7599 15.1486L33.005 12.919L33.2619 13.1135C33.7902 13.5132 34.4308 13.86 35.1878 14.1513C35.9407 14.4262 36.6325 14.5597 37.2655 14.5597C38.0819 14.5597 38.7798 14.3495 39.3709 13.9371L39.3733 13.9354C39.9456 13.5453 40.238 12.9719 40.238 12.1705C40.238 11.5025 39.9961 10.9957 39.5154 10.6189L39.5121 10.6163L39.5088 10.6136C39.0023 10.1915 38.2702 9.78622 37.2991 9.4035C36.3803 9.05701 35.6061 8.71586 34.9792 8.37946L34.9766 8.37808C34.3426 8.02934 33.7972 7.55431 33.3409 6.95644L33.3388 6.95366C32.8625 6.31318 32.6328 5.52594 32.6328 4.61021C32.6328 3.26576 33.1033 2.16197 34.0514 1.32636C35.0065 0.482798 36.2321 0.0466631 37.7053 0.000139718L37.7097 0H37.7141C39.5128 0 41.1842 0.44647 42.723 1.33903L42.9498 1.47056L41.8752 3.64884ZM34.2369 1.53674C33.3545 2.31445 32.9133 3.33894 32.9133 4.61021C32.9133 5.47766 33.1301 6.20303 33.5638 6.78631C33.9976 7.35464 34.5136 7.80332 35.1118 8.13236C35.725 8.46139 36.4878 8.7979 37.4001 9.14189C38.3872 9.53075 39.1499 9.94952 39.6883 10.3982C40.2417 10.8319 40.5184 11.4227 40.5184 12.1705C40.5184 13.0529 40.1894 13.7184 39.5313 14.1671C38.8882 14.6158 38.1329 14.8401 37.2655 14.8401C36.5924 14.8401 35.8671 14.6981 35.0894 14.4139C34.416 14.1549 33.8267 13.8511 33.3216 13.5024C33.2433 13.4484 33.167 13.3933 33.0927 13.3371L32.1281 15.0645C32.831 15.558 33.6461 15.9693 34.5734 16.2984C35.5007 16.6124 36.4653 16.7695 37.4674 16.7695C38.5442 16.7695 39.479 16.5676 40.2716 16.1638C41.0793 15.7599 41.6999 15.2066 42.1337 14.5036C42.5674 13.8007 42.7843 13.0155 42.7843 12.1481C42.7843 11.1909 42.5898 10.4057 42.201 9.79248C41.8271 9.16432 41.3485 8.67825 40.7652 8.33426C40.1969 7.97532 39.4939 7.64628 38.6564 7.34716C37.5347 6.92839 36.6672 6.50962 36.054 6.09085C35.4558 5.65713 35.1567 5.10375 35.1567 4.43073C35.1567 3.74275 35.4109 3.20434 35.9194 2.81548C36.4429 2.41166 37.1458 2.20976 38.0282 2.20976C38.6115 2.20976 39.2322 2.30697 39.8903 2.5014C40.4555 2.66842 40.9932 2.87958 41.5034 3.13489C41.5871 3.17679 41.67 3.21988 41.7523 3.26416L42.5823 1.5816C41.0867 0.714152 39.464 0.280426 37.7141 0.280426C36.2933 0.325295 35.1342 0.744065 34.2369 1.53674ZM52.5992 13.8068L53.8678 15.8424L53.6416 15.9933C53.1265 16.3366 52.5655 16.6092 51.9594 16.8112L51.9552 16.8126C51.3625 16.9998 50.7806 17.0948 50.2106 17.0948C49.1401 17.0948 48.1881 16.8773 47.3632 16.4331L47.3575 16.43C46.5514 15.9717 45.9235 15.3444 45.4791 14.5509C45.0347 13.7572 44.8152 12.8642 44.8152 11.8788C44.8152 10.9182 45.0522 10.0378 45.5282 9.24439L45.529 9.243C46.0183 8.43819 46.6823 7.8059 47.5168 7.34891C48.3526 6.87619 49.2673 6.64049 50.2555 6.64049C51.5257 6.64049 52.6034 7.01844 53.4684 7.78633C54.3439 8.53535 54.93 9.57885 55.2396 10.8948L55.2974 11.1403L48.0398 13.6848C48.2551 13.9732 48.5165 14.2093 48.8247 14.395C49.2417 14.6226 49.7164 14.7392 50.2555 14.7392C50.9638 14.7392 51.6622 14.4952 52.3553 13.986L52.5992 13.8068ZM48.6851 14.6382C48.3178 14.4179 48.0107 14.1323 47.7636 13.7817C47.7089 13.704 47.6571 13.6231 47.6083 13.539L54.9667 10.9591C54.6675 9.68779 54.1067 8.70069 53.2841 7.99775C52.4765 7.27986 51.4669 6.92092 50.2555 6.92092C49.3133 6.92092 48.4458 7.14526 47.6531 7.59394C46.8605 8.02766 46.2323 8.62591 45.7687 9.38867C45.32 10.1365 45.0957 10.9665 45.0957 11.8788C45.0957 12.8211 45.305 13.6661 45.7238 14.4139C46.1426 15.1617 46.7333 15.7525 47.4961 16.1862C48.2738 16.605 49.1787 16.8143 50.2106 16.8143C50.749 16.8143 51.3024 16.7246 51.8708 16.5451C52.454 16.3507 52.9925 16.089 53.486 15.7599L52.5213 14.212C52.4447 14.2683 52.3678 14.3217 52.2907 14.3721C51.6303 14.8038 50.9519 15.0196 50.2555 15.0196C49.6722 15.0196 49.1488 14.8925 48.6851 14.6382ZM51.4518 9.27351C51.1065 9.0049 50.6621 8.86146 50.0985 8.86146C49.3201 8.86146 48.6931 9.13088 48.1955 9.66882C47.6967 10.208 47.44 10.8995 47.44 11.7667C47.44 11.8095 47.4403 11.85 47.4409 11.8881L52.1986 10.1311C52.006 9.78717 51.7583 9.50344 51.4557 9.27649L51.4518 9.27351ZM52.4646 10.0329C52.5088 10.1144 52.5502 10.1988 52.5886 10.286L47.182 12.2827C47.1725 12.2066 47.166 12.1093 47.1626 11.9909C47.1606 11.9231 47.1596 11.8484 47.1596 11.7667C47.1596 10.8394 47.4363 10.0766 47.9897 9.4784C48.543 8.88016 49.246 8.58104 50.0985 8.58104C50.7117 8.58104 51.2202 8.73808 51.624 9.05215C51.9709 9.31235 52.2511 9.63926 52.4646 10.0329ZM67.6426 7.02187V16.6573C67.6426 17.5601 67.4122 18.3826 66.9488 19.1176C66.485 19.8533 65.8236 20.4321 64.9757 20.8562C64.1364 21.2835 63.1567 21.4919 62.0453 21.4919C61.0725 21.4919 60.2159 21.3298 59.4835 20.9954L59.4814 20.9944C58.7786 20.6664 58.0756 20.1859 57.3719 19.5587L57.1663 19.3755L58.7709 17.5083L58.9846 17.7094C59.4766 18.1725 59.9611 18.5126 60.4373 18.7367L60.4433 18.7396C60.9099 18.9728 61.4273 19.0914 62.0004 19.0914C62.9905 19.0914 63.7069 18.8547 64.1918 18.4222L64.1946 18.4198C64.6956 17.9847 64.9591 17.3983 64.973 16.6305V16.6305L64.9846 15.7272C64.6776 16.0454 64.3093 16.3181 63.8823 16.5458L63.8802 16.5469C63.1758 16.9151 62.3671 17.0948 61.462 17.0948C60.5593 17.0948 59.7238 16.8644 58.9614 16.4038C58.2019 15.9449 57.5931 15.3194 57.1364 14.5322L57.1343 14.5285C56.6906 13.7361 56.4704 12.8584 56.4704 11.9013C56.4704 10.9142 56.6982 10.0199 57.1589 9.22554L57.1597 9.22405C57.6323 8.42072 58.2649 7.78746 59.0555 7.32893C59.8454 6.87078 60.694 6.64049 61.5966 6.64049C62.4275 6.64049 63.2011 6.80536 63.9138 7.13791C64.3806 7.35577 64.777 7.61859 65.0972 7.92887L65.2067 7.02187H67.6426ZM65.2983 8.60347C65.2253 8.49397 65.1438 8.38888 65.0538 8.28821C64.7384 7.93515 64.3189 7.63642 63.7952 7.39203C63.1222 7.07795 62.3893 6.92092 61.5966 6.92092C60.7441 6.92092 59.944 7.13778 59.1962 7.5715C58.4484 8.00523 57.8501 8.60347 57.4015 9.36623C56.9677 10.114 56.7509 10.9591 56.7509 11.9013C56.7509 12.8136 56.9603 13.6437 57.379 14.3915C57.8127 15.1393 58.3886 15.73 59.1064 16.1638C59.8243 16.5975 60.6095 16.8143 61.462 16.8143C62.3295 16.8143 63.0922 16.6424 63.7503 16.2984C64.2567 16.0283 64.67 15.6947 64.9901 15.2976C65.0954 15.167 65.1907 15.0294 65.2758 14.885L65.2534 16.6349C65.2384 17.4724 64.9468 18.138 64.3785 18.6315C63.8251 19.1251 63.0324 19.3718 62.0004 19.3718C61.3872 19.3718 60.8264 19.2447 60.3179 18.9905C59.8786 18.7837 59.4393 18.4877 58.9999 18.1023C58.9308 18.0416 58.8616 17.9787 58.7924 17.9136L57.5585 19.3494C58.2465 19.9626 58.927 20.4262 59.6 20.7403C60.288 21.0544 61.1031 21.2114 62.0453 21.2114C63.1222 21.2114 64.0569 21.0095 64.8496 20.6057C65.6572 20.2019 66.2779 19.656 66.7116 18.968C67.1453 18.28 67.3622 17.5098 67.3622 16.6573V7.30229H65.4553L65.2983 8.60347ZM63.9233 9.50429C63.3907 9.12194 62.7757 8.92877 62.0677 8.92877C61.2234 8.92877 60.5325 9.20284 59.9753 9.74643C59.4209 10.2873 59.1401 10.9754 59.1401 11.834C59.1401 12.3857 59.2705 12.8829 59.5289 13.3317C59.7887 13.7828 60.1428 14.1445 60.5951 14.4192C61.0443 14.6772 61.5334 14.8065 62.0677 14.8065C62.8059 14.8065 63.4339 14.6058 63.9644 14.2113C64.4869 13.8228 64.8285 13.3203 64.9954 12.6953V10.9353C64.8018 10.3411 64.4478 9.86748 63.9272 9.50706L63.9233 9.50429ZM65.2758 10.8917V12.7313C65.0964 13.4343 64.715 14.0026 64.1317 14.4363C63.5484 14.8701 62.8604 15.0869 62.0677 15.0869C61.4845 15.0869 60.946 14.9448 60.4525 14.6607C59.9589 14.3616 59.5701 13.9652 59.2859 13.4717C59.0018 12.9781 58.8597 12.4322 58.8597 11.834C58.8597 10.9067 59.1663 10.1439 59.7795 9.5457C60.3927 8.94746 61.1554 8.64834 62.0677 8.64834C62.8305 8.64834 63.5035 8.85772 64.0868 9.27649C64.6701 9.68031 65.0664 10.2187 65.2758 10.8917ZM79.9058 7.02187V16.8704H77.481L77.3894 15.6645C77.0929 16.0261 76.7271 16.3394 76.2948 16.6047L76.2908 16.6071C75.587 17.0229 74.8044 17.2294 73.9496 17.2294C73.037 17.2294 72.2632 16.9552 71.651 16.3927L71.6452 16.3873C71.0498 15.8085 70.7403 15.0645 70.708 14.1773L70.7079 14.1722V7.02187H73.3551V13.4186C73.3832 13.8899 73.5159 14.2407 73.7315 14.495C73.9486 14.7204 74.284 14.8596 74.7834 14.8738C75.2301 14.8731 75.6348 14.7428 76.0049 14.4793C76.3796 14.1975 76.6796 13.812 76.9014 13.3129L76.904 13.307C77.1388 12.8098 77.2586 12.2531 77.2586 11.6321V7.02187H79.9058ZM76.1705 14.7055C75.7518 15.0047 75.2881 15.1542 74.7796 15.1542C74.2263 15.1393 73.8075 14.9822 73.5233 14.6831C73.2541 14.369 73.1046 13.9503 73.0747 13.4268V7.30229H70.9883V14.1671C71.0182 14.9897 71.3023 15.6627 71.8408 16.1862C72.3941 16.6947 73.0971 16.949 73.9496 16.949C74.7572 16.949 75.49 16.7545 76.1481 16.3657C76.652 16.0565 77.055 15.6815 77.3572 15.2408C77.4497 15.1059 77.5327 14.9649 77.6063 14.8177L77.7409 16.59H79.6254V7.30229H77.539V11.6321C77.539 12.2901 77.4119 12.8884 77.1577 13.4268C76.9184 13.9652 76.5893 14.3915 76.1705 14.7055ZM88.8983 9.00677C88.23 8.97899 87.6208 9.11376 87.0707 9.4111C86.5323 9.71022 86.106 10.129 85.792 10.6674C85.4928 11.1909 85.3433 11.7517 85.3433 12.35V16.59H83.2569V7.30229H85.1189L85.276 9.50084C85.3497 9.34421 85.4326 9.19325 85.5248 9.04797C85.7318 8.7216 85.9854 8.42387 86.2855 8.15479C86.7342 7.76593 87.2053 7.46681 87.6989 7.25743C88.073 7.0987 88.4128 6.99584 88.7181 6.94884C88.8156 6.93384 88.9096 6.92453 89 6.92092L88.9103 9.00729C88.9063 9.00711 88.9023 9.00694 88.8983 9.00677ZM85.4929 8.60215L85.3801 7.02187H82.9765V16.8704H85.6237V12.35C85.6237 11.8012 85.7602 11.2884 86.0351 10.8072C86.3238 10.3129 86.7129 9.93101 87.2055 9.657C87.7107 9.3843 88.2724 9.25964 88.8979 9.28743L89.1784 9.2999L89.2933 6.62854L88.9888 6.64071C88.5699 6.65747 88.1017 6.78191 87.5893 6.99927C87.0661 7.22126 86.5703 7.53687 86.1018 7.94285L86.0983 7.94599C85.872 8.14887 85.6701 8.36762 85.4929 8.60215ZM90.8977 9.22554L90.8985 9.22405C91.3726 8.41803 92.0223 7.78444 92.8432 7.32659L92.8452 7.32549C93.6829 6.86714 94.6198 6.64049 95.6495 6.64049C96.6785 6.64049 97.602 6.8669 98.4118 7.32714C99.2319 7.78471 99.8677 8.41125 100.313 9.20496C100.772 9.99814 101 10.8842 101 11.8564C101 12.8293 100.772 13.7224 100.313 14.5297C99.8679 15.324 99.2316 15.9509 98.4108 16.4087C97.5864 16.8685 96.6484 17.0948 95.6046 17.0948C94.5925 17.0948 93.6724 16.8842 92.8506 16.4575L92.8469 16.4556C92.0253 16.0132 91.3747 15.3947 90.8998 14.603L90.8976 14.5995C90.4358 13.8031 90.2092 12.8858 90.2092 11.8564C90.2092 10.8975 90.4377 10.0185 90.8977 9.22554ZM100.069 14.3915C100.503 13.6287 100.72 12.7837 100.72 11.8564C100.72 10.9291 100.503 10.0916 100.069 9.3438C99.6502 8.59599 99.052 8.00523 98.2743 7.5715C97.5115 7.13778 96.6366 6.92092 95.6495 6.92092C94.6624 6.92092 93.7725 7.13778 92.9798 7.5715C92.2021 8.00523 91.5889 8.60347 91.1402 9.36623C90.7065 10.114 90.4896 10.9441 90.4896 11.8564C90.4896 12.8435 90.7065 13.711 91.1402 14.4588C91.5889 15.2066 92.2021 15.7899 92.9798 16.2086C93.7575 16.6124 94.6325 16.8143 95.6046 16.8143C96.6067 16.8143 97.4965 16.5975 98.2743 16.1638C99.052 15.73 99.6502 15.1393 100.069 14.3915ZM97.5302 9.7812L97.5279 9.77873C97.0142 9.21091 96.3725 8.92877 95.5822 8.92877C95.0661 8.92877 94.6123 9.06364 94.2122 9.33035L94.2067 9.334C93.8015 9.59062 93.4752 9.9421 93.2276 10.395C92.9958 10.846 92.8789 11.3391 92.8789 11.8788C92.8789 12.4186 92.9958 12.9117 93.2276 13.3627C93.4749 13.815 93.8007 14.1662 94.2051 14.4228C94.6233 14.6786 95.0803 14.8065 95.5822 14.8065C96.3749 14.8065 97.0171 14.5301 97.5302 13.9765C98.0459 13.4201 98.3079 12.7275 98.3079 11.8788C98.3079 11.0302 98.0459 10.3376 97.5302 9.7812ZM94.0566 14.6607C93.608 14.3765 93.249 13.9877 92.9798 13.4941C92.7256 13.0006 92.5984 12.4621 92.5984 11.8788C92.5984 11.2956 92.7256 10.7571 92.9798 10.2636C93.249 9.77004 93.608 9.38119 94.0566 9.09702C94.5053 8.7979 95.0138 8.64834 95.5822 8.64834C96.4496 8.64834 97.1675 8.96242 97.7358 9.59057C98.3042 10.2038 98.5883 10.9665 98.5883 11.8788C98.5883 12.7912 98.3042 13.5539 97.7358 14.1671C97.1675 14.7803 96.4496 15.0869 95.5822 15.0869C95.0288 15.0869 94.5203 14.9448 94.0566 14.6607Z" fill="white"/>
</svg>
